<svg width="580" height="230" viewBox="0 0 580 230" fill="none" xmlns="http://www.w3.org/2000/svg">
<path d="M0 0H298.5H580V230H298.5H0V0Z" fill="#C2FF05"/>
<path d="M196.177 135.8C193.477 137.7 190.277 139.2 186.877 139.2C173.477 139.2 173.477 115.9 173.477 107.1C173.477 93.1 175.177 75.4 187.377 75.4C190.877 75.4 193.377 76.8 196.177 78.7V71C193.877 69.3 190.077 68.6 187.277 68.6C166.677 68.6 166.277 97.8 166.277 110C166.277 122.9 168.877 146 186.577 146C189.877 146 193.577 144.7 196.177 142.9V135.8ZM217.895 92.9C204.395 92.9 203.195 109.7 203.195 119.3C203.195 129 204.395 145.8 217.895 145.8C231.395 145.8 232.595 129 232.595 119.3C232.595 109.7 231.395 92.9 217.895 92.9ZM217.895 99C225.695 99 225.895 114.4 225.895 119.3C225.895 124.3 225.695 139.7 217.895 139.7C210.095 139.7 209.895 124.3 209.895 119.3C209.895 114.4 210.095 99 217.895 99ZM247.742 93.7H241.242V145H247.742V111.7C247.742 106.3 248.042 98.2 255.442 98.2C260.842 98.2 261.242 102.9 261.242 109V145H267.742V108.3C267.742 101.3 266.942 92.9 257.842 92.9C253.842 92.9 250.342 94.8 247.742 97.8V93.7ZM295.489 93.7H286.989V79.7H280.489V93.7H274.989V99.7H280.489V145H286.989V99.7H295.489V93.7ZM319.785 118.5C319.785 134.6 318.585 140.5 312.285 140.5C308.485 140.5 304.985 139.5 304.985 118.3C304.985 109.6 305.385 98.2 312.585 98.2C318.985 98.2 319.785 107.4 319.785 118.5ZM325.685 93.7H319.185V97.2H318.985C316.985 94.4 314.685 92.9 311.085 92.9C298.685 92.9 298.285 107.3 298.285 118.8C298.285 141.2 302.285 145.8 310.485 145.8C314.185 145.8 317.085 143.9 318.985 141H319.185V145H325.685V93.7ZM356.248 94.9C354.148 93.6 351.548 92.9 349.148 92.9C336.148 92.9 334.148 110.7 334.148 120.4C334.148 129.2 337.048 145.8 348.848 145.8C351.348 145.8 354.348 144.8 356.248 143.2V135.1H356.048C354.548 137.4 352.648 139.7 349.648 139.7C341.948 139.7 340.848 124.6 340.848 119.5C340.848 113.6 341.648 99 350.048 99C352.548 99 354.648 100.7 356.248 102.4V94.9ZM382.18 93.7H373.68V79.7H367.18V93.7H361.68V99.7H367.18V145H373.68V99.7H382.18V93.7ZM399.677 92.9C386.177 92.9 384.977 109.7 384.977 119.3C384.977 129 386.177 145.8 399.677 145.8C413.177 145.8 414.377 129 414.377 119.3C414.377 109.7 413.177 92.9 399.677 92.9ZM399.677 99C407.477 99 407.677 114.4 407.677 119.3C407.677 124.3 407.477 139.7 399.677 139.7C391.877 139.7 391.677 124.3 391.677 119.3C391.677 114.4 391.877 99 399.677 99Z" fill="#610FCA"/>
</svg>
