<svg width="1293" height="666" viewBox="0 0 1293 666" fill="none" xmlns="http://www.w3.org/2000/svg">
<g clip-path="url(#clip0_1107_14)">
<path d="M134.691 408.8L418.691 525.6L397.891 587.2L52.2906 440.8V376.8L397.891 230.4L418.691 292L134.691 408.8ZM886.947 292L907.747 230.4L1253.35 376.8V440.8L907.747 587.2L886.947 525.6L1170.95 408.8L886.947 292Z" fill="#FF006E"/>
<path d="M750.253 320C741.186 312.533 728.12 305.333 711.053 298.4C693.986 291.467 675.32 288 655.053 288C633.72 288 615.32 292 599.853 300C584.92 307.467 572.653 318.133 563.053 332C553.453 345.333 546.52 361.333 542.253 380C537.986 398.667 535.853 418.667 535.853 440C535.853 488.533 547.853 526.133 571.853 552.8C595.853 578.933 627.853 592 667.853 592C688.12 592 704.92 591.2 718.253 589.6C732.12 587.467 742.786 585.333 750.253 583.2V320ZM750.253 40L824.653 27.2V636C807.586 640.8 785.72 645.6 759.053 650.4C732.386 655.2 701.72 657.6 667.053 657.6C635.053 657.6 606.253 652.533 580.653 642.4C555.053 632.267 533.186 617.867 515.053 599.2C496.92 580.533 482.786 557.867 472.653 531.2C463.053 504 458.253 473.6 458.253 440C458.253 408 462.253 378.667 470.253 352C478.786 325.333 491.053 302.4 507.053 283.2C523.053 264 542.52 249.067 565.453 238.4C588.92 227.733 615.586 222.4 645.453 222.4C669.453 222.4 690.52 225.6 708.653 232C727.32 238.4 741.186 244.533 750.253 250.4V40Z" fill="#50C8EE"/>
</g>
<defs>
<clipPath id="clip0_1107_14">
<rect width="1293" height="666" fill="white"/>
</clipPath>
</defs>
</svg>
