<svg width="1209" height="83" viewBox="0 0 1209 83" fill="none" xmlns="http://www.w3.org/2000/svg">
<g filter="url(#filter0_d_840_16)">
<path d="M26.9609 19.5859L28.7968 18.7923L26.9609 14.5455L25.1251 18.7923L26.9609 19.5859ZM17.8594 40.6406L16.0236 39.847L14.8159 42.6406H17.8594V40.6406ZM36.0625 40.6406V42.6406H39.1059L37.8983 39.847L36.0625 40.6406ZM26.9609 4.54688L28.7932 3.74511L26.9582 -0.448423L25.1278 3.74713L26.9609 4.54688ZM52.9766 64V66H56.0348L54.8088 63.1982L52.9766 64ZM45.5938 64L43.7519 64.7794L44.2684 66H45.5938V64ZM38.1719 46.4609L40.0138 45.6815L39.4972 44.4609H38.1719V46.4609ZM15.8281 46.4609V44.4609H14.5028L13.9862 45.6815L15.8281 46.4609ZM8.40625 64V66H9.73162L10.2481 64.7794L8.40625 64ZM1.02344 64L-0.809705 63.2003L-2.03114 66H1.02344V64ZM25.1251 18.7923L16.0236 39.847L19.6952 41.4342L28.7968 20.3795L25.1251 18.7923ZM17.8594 42.6406H36.0625V38.6406H17.8594V42.6406ZM37.8983 39.847L28.7968 18.7923L25.1251 20.3795L34.2267 41.4342L37.8983 39.847ZM25.1287 5.34864L51.1443 64.8018L54.8088 63.1982L28.7932 3.74511L25.1287 5.34864ZM52.9766 62H45.5938V66H52.9766V62ZM47.4356 63.2206L40.0138 45.6815L36.33 47.2404L43.7519 64.7794L47.4356 63.2206ZM38.1719 44.4609H15.8281V48.4609H38.1719V44.4609ZM13.9862 45.6815L6.56437 63.2206L10.2481 64.7794L17.67 47.2404L13.9862 45.6815ZM8.40625 62H1.02344V66H8.40625V62ZM2.85658 64.7997L28.7941 5.34662L25.1278 3.74713L-0.809705 63.2003L2.85658 64.7997ZM111.116 66.2266L109.28 67.0205L111.12 71.2741L112.953 67.0176L111.116 66.2266ZM93.3422 25.1328L95.1778 24.3389L92.5701 18.3095L91.3755 24.7691L93.3422 25.1328ZM86.1547 64V66H87.8187L88.1213 64.3637L86.1547 64ZM79.5141 64L77.5511 63.6169L77.0861 66H79.5141V64ZM91.1156 4.54688L92.9577 3.76804L90.4071 -2.2648L89.1526 4.16382L91.1156 4.54688ZM111.116 51.8516L109.274 52.6304L111.116 56.9874L112.958 52.6304L111.116 51.8516ZM131.116 4.54688L133.079 4.16382L131.824 -2.2648L129.274 3.76804L131.116 4.54688ZM142.717 64V66H145.145L144.68 63.6169L142.717 64ZM136.077 64L134.111 64.3675L134.416 66H136.077V64ZM128.811 25.1328L130.777 24.7653L129.571 18.3119L126.974 24.3418L128.811 25.1328ZM112.951 65.4326L95.1778 24.3389L91.5065 25.9268L109.28 67.0205L112.951 65.4326ZM91.3755 24.7691L84.188 63.6363L88.1213 64.3637L95.3088 25.4965L91.3755 24.7691ZM86.1547 62H79.5141V66H86.1547V62ZM81.477 64.3831L93.0786 4.92993L89.1526 4.16382L77.5511 63.6169L81.477 64.3831ZM89.2735 5.32571L109.274 52.6304L112.958 51.0727L92.9577 3.76804L89.2735 5.32571ZM112.958 52.6304L132.958 5.32571L129.274 3.76804L109.274 51.0727L112.958 52.6304ZM129.153 4.92993L140.754 64.3831L144.68 63.6169L133.079 4.16382L129.153 4.92993ZM142.717 62H136.077V66H142.717V62ZM138.043 63.6325L130.777 24.7653L126.845 25.5003L134.111 64.3675L138.043 63.6325ZM126.974 24.3418L109.279 65.4356L112.953 67.0176L130.648 25.9238L126.974 24.3418ZM183.747 38.3359V36.3359H181.747V38.3359H183.747ZM183.747 64V66H185.747V64H183.747ZM177.106 64H175.106V66H177.106V64ZM177.106 6.8125V4.8125H175.106V6.8125H177.106ZM203.512 9.66406L204.675 8.0366L204.665 8.02966L204.655 8.02285L203.512 9.66406ZM207.77 15.0156L205.945 15.8337L205.949 15.8424L205.953 15.8511L207.77 15.0156ZM207.77 30.0938L205.953 29.2583L205.949 29.2669L205.945 29.2756L207.77 30.0938ZM203.512 35.4453L204.675 37.0728L203.512 35.4453ZM198.356 37.6719L197.92 35.7201L197.914 35.7214L198.356 37.6719ZM183.747 32.1641H181.747V34.1641H183.747V32.1641ZM198.942 30.1328L200.062 31.7903L200.066 31.7871L198.942 30.1328ZM198.864 15.25L197.694 16.8719L197.704 16.8788L198.864 15.25ZM183.747 13.0234V11.0234H181.747V13.0234H183.747ZM181.747 38.3359V64H185.747V38.3359H181.747ZM183.747 62H177.106V66H183.747V62ZM179.106 64V6.8125H175.106V64H179.106ZM177.106 8.8125H189.098V4.8125H177.106V8.8125ZM189.098 8.8125C193.265 8.8125 196.167 9.03626 197.92 9.42833L198.793 5.52479C196.587 5.03144 193.317 4.8125 189.098 4.8125V8.8125ZM197.92 9.42833C199.681 9.8223 201.152 10.4575 202.37 11.3053L204.655 8.02285C202.956 6.83936 200.99 6.01624 198.793 5.52479L197.92 9.42833ZM202.35 11.2915C203.854 12.3656 205.059 13.8559 205.945 15.8337L209.595 14.1975C208.451 11.6441 206.817 9.56669 204.675 8.0366L202.35 11.2915ZM205.953 15.8511C206.862 17.8278 207.333 20.0516 207.333 22.5547H211.333C211.333 19.537 210.762 16.7347 209.587 14.1802L205.953 15.8511ZM207.333 22.5547C207.333 25.0578 206.862 27.2816 205.953 29.2583L209.587 30.9292C210.762 28.3747 211.333 25.5724 211.333 22.5547H207.333ZM205.945 29.2756C205.059 31.2535 203.854 32.7438 202.35 33.8178L204.675 37.0728C206.817 35.5427 208.451 33.4653 209.595 30.9119L205.945 29.2756ZM202.35 33.8178C201.136 34.6847 199.672 35.3282 197.92 35.7201L198.793 39.6236C200.999 39.1302 202.972 38.2892 204.675 37.0728L202.35 33.8178ZM197.914 35.7214C196.192 36.1118 193.294 36.3359 189.098 36.3359V40.3359C193.34 40.3359 196.614 40.1174 198.798 39.6224L197.914 35.7214ZM189.098 36.3359H187.184V40.3359H189.098V36.3359ZM187.184 36.3359H183.747V40.3359H187.184V36.3359ZM183.747 34.1641H187.184V30.1641H183.747V34.1641ZM187.184 34.1641C190.168 34.1641 192.728 33.9917 194.839 33.6271C196.92 33.2675 198.721 32.6957 200.061 31.7903L197.823 28.4754C197.158 28.9241 195.996 29.3679 194.158 29.6854C192.35 29.9979 190.034 30.1641 187.184 30.1641V34.1641ZM200.066 31.7871C202.842 29.9007 203.989 26.7389 203.989 22.9453H199.989C199.989 25.9747 199.104 27.6046 197.818 28.4786L200.066 31.7871ZM203.989 22.9453C203.989 18.9464 202.835 15.6238 200.025 13.6212L197.704 16.8788C199.059 17.845 199.989 19.6526 199.989 22.9453H203.989ZM200.034 13.6281C198.673 12.6457 196.865 12.0137 194.776 11.6155C192.664 11.213 190.124 11.0234 187.184 11.0234V15.0234C189.974 15.0234 192.245 15.205 194.027 15.5447C195.831 15.8887 196.998 16.3699 197.694 16.8719L200.034 13.6281ZM187.184 11.0234H183.747V15.0234H187.184V11.0234ZM181.747 13.0234V32.1641H185.747V13.0234H181.747ZM243.331 64H241.331V66H243.331V64ZM243.331 6.8125V4.8125H241.331V6.8125H243.331ZM250.128 6.8125H252.128V4.8125H250.128V6.8125ZM250.128 57.5156H248.128V59.5156H250.128V57.5156ZM271.73 57.5156H273.73V55.5156H271.73V57.5156ZM271.73 64V66H273.73V64H271.73ZM245.331 64V6.8125H241.331V64H245.331ZM243.331 8.8125H250.128V4.8125H243.331V8.8125ZM248.128 6.8125V57.5156H252.128V6.8125H248.128ZM250.128 59.5156H271.73V55.5156H250.128V59.5156ZM269.73 57.5156V64H273.73V57.5156H269.73ZM271.73 62H243.331V66H271.73V62ZM305.494 64H303.494V66H305.494V64ZM305.494 6.8125V4.8125H303.494V6.8125H305.494ZM312.291 6.8125H314.291V4.8125H312.291V6.8125ZM312.291 64V66H314.291V64H312.291ZM307.494 64V6.8125H303.494V64H307.494ZM305.494 8.8125H312.291V4.8125H305.494V8.8125ZM310.291 6.8125V64H314.291V6.8125H310.291ZM312.291 62H305.494V66H312.291V62ZM369.805 19.5859L371.641 18.7923L369.805 14.5455L367.969 18.7923L369.805 19.5859ZM360.703 40.6406L358.867 39.847L357.66 42.6406H360.703V40.6406ZM378.906 40.6406V42.6406H381.95L380.742 39.847L378.906 40.6406ZM369.805 4.54688L371.637 3.74511L369.802 -0.448423L367.972 3.74713L369.805 4.54688ZM395.82 64V66H398.879L397.653 63.1982L395.82 64ZM388.438 64L386.596 64.7794L387.112 66H388.438V64ZM381.016 46.4609L382.858 45.6815L382.341 44.4609H381.016V46.4609ZM358.672 46.4609V44.4609H357.347L356.83 45.6815L358.672 46.4609ZM351.25 64V66H352.575L353.092 64.7794L351.25 64ZM343.867 64L342.034 63.2003L340.813 66H343.867V64ZM367.969 18.7923L358.867 39.847L362.539 41.4342L371.641 20.3795L367.969 18.7923ZM360.703 42.6406H378.906V38.6406H360.703V42.6406ZM380.742 39.847L371.641 18.7923L367.969 20.3795L377.07 41.4342L380.742 39.847ZM367.972 5.34864L393.988 64.8018L397.653 63.1982L371.637 3.74511L367.972 5.34864ZM395.82 62H388.438V66H395.82V62ZM390.279 63.2206L382.858 45.6815L379.174 47.2404L386.596 64.7794L390.279 63.2206ZM381.016 44.4609H358.672V48.4609H381.016V44.4609ZM356.83 45.6815L349.408 63.2206L353.092 64.7794L360.514 47.2404L356.83 45.6815ZM351.25 62H343.867V66H351.25V62ZM345.7 64.7997L371.638 5.34662L367.972 3.74713L342.034 63.2003L345.7 64.7997ZM476.513 64H474.513V66H476.513V64ZM476.513 6.8125V4.8125H474.513V6.8125H476.513ZM506.669 6.8125H508.669V4.8125H506.669V6.8125ZM506.669 13.0234V15.0234H508.669V13.0234H506.669ZM483.309 13.0234V11.0234H481.309V13.0234H483.309ZM483.309 29.4297H481.309V31.4297H483.309V29.4297ZM506.669 29.4297H508.669V27.4297H506.669V29.4297ZM506.669 35.7578V37.7578H508.669V35.7578H506.669ZM483.309 35.7578V33.7578H481.309V35.7578H483.309ZM483.309 57.6719H481.309V59.6719H483.309V57.6719ZM506.669 57.6719H508.669V55.6719H506.669V57.6719ZM506.669 64V66H508.669V64H506.669ZM478.513 64V6.8125H474.513V64H478.513ZM476.513 8.8125H506.669V4.8125H476.513V8.8125ZM504.669 6.8125V13.0234H508.669V6.8125H504.669ZM506.669 11.0234H483.309V15.0234H506.669V11.0234ZM481.309 13.0234V29.4297H485.309V13.0234H481.309ZM483.309 31.4297H506.669V27.4297H483.309V31.4297ZM504.669 29.4297V35.7578H508.669V29.4297H504.669ZM506.669 33.7578H483.309V37.7578H506.669V33.7578ZM481.309 35.7578V57.6719H485.309V35.7578H481.309ZM483.309 59.6719H506.669V55.6719H483.309V59.6719ZM504.669 57.6719V64H508.669V57.6719H504.669ZM506.669 62H476.513V66H506.669V62ZM536.487 64L534.756 62.9986L533.02 66H536.487V64ZM554.066 33.6094L555.797 34.6107L556.393 33.5803L555.771 32.5651L554.066 33.6094ZM537.659 6.8125V4.8125H534.09L535.954 7.85681L537.659 6.8125ZM545.823 6.8125L547.566 5.83034L546.992 4.8125H545.823V6.8125ZM558.089 28.5703L556.347 29.5525L558.12 32.6983L559.846 29.526L558.089 28.5703ZM569.925 6.8125V4.8125H568.736L568.168 5.85679L569.925 6.8125ZM577.659 6.8125L579.381 7.83029L581.165 4.8125H577.659V6.8125ZM561.448 34.2344L559.727 33.2166L559.114 34.253L559.743 35.2794L561.448 34.2344ZM579.691 64V66H583.262L581.396 62.9549L579.691 64ZM571.683 64L569.947 64.9932L570.523 66H571.683V64ZM557.581 39.3516L559.317 38.3584L557.534 35.2415L555.823 38.3985L557.581 39.3516ZM544.222 64V66H545.413L545.98 64.953L544.222 64ZM538.219 65.0014L555.797 34.6107L552.334 32.608L534.756 62.9986L538.219 65.0014ZM555.771 32.5651L539.365 5.76819L535.954 7.85681L552.36 34.6537L555.771 32.5651ZM537.659 8.8125H545.823V4.8125H537.659V8.8125ZM544.081 7.79466L556.347 29.5525L559.831 27.5882L547.566 5.83034L544.081 7.79466ZM559.846 29.526L571.682 7.76821L568.168 5.85679L556.332 27.6146L559.846 29.526ZM569.925 8.8125H577.659V4.8125H569.925V8.8125ZM575.938 5.79471L559.727 33.2166L563.17 35.2522L579.381 7.83029L575.938 5.79471ZM559.743 35.2794L577.985 65.0451L581.396 62.9549L563.154 33.1893L559.743 35.2794ZM579.691 62H571.683V66H579.691V62ZM573.419 63.0068L559.317 38.3584L555.845 40.3447L569.947 64.9932L573.419 63.0068ZM555.823 38.3985L542.464 63.047L545.98 64.953L559.34 40.3046L555.823 38.3985ZM544.222 62H536.487V66H544.222V62ZM618.416 38.3359V36.3359H616.416V38.3359H618.416ZM618.416 64V66H620.416V64H618.416ZM611.775 64H609.775V66H611.775V64ZM611.775 6.8125V4.8125H609.775V6.8125H611.775ZM638.181 9.66406L639.344 8.0366L639.334 8.02966L639.324 8.02285L638.181 9.66406ZM642.439 15.0156L640.614 15.8337L640.618 15.8424L640.622 15.8511L642.439 15.0156ZM642.439 30.0938L640.622 29.2583L640.618 29.2669L640.614 29.2756L642.439 30.0938ZM638.181 35.4453L639.344 37.0728L638.181 35.4453ZM633.025 37.6719L632.588 35.7201L632.583 35.7214L633.025 37.6719ZM618.416 32.1641H616.416V34.1641H618.416V32.1641ZM633.611 30.1328L634.73 31.7903L634.735 31.7871L633.611 30.1328ZM633.533 15.25L632.363 16.8719L632.372 16.8788L633.533 15.25ZM618.416 13.0234V11.0234H616.416V13.0234H618.416ZM616.416 38.3359V64H620.416V38.3359H616.416ZM618.416 62H611.775V66H618.416V62ZM613.775 64V6.8125H609.775V64H613.775ZM611.775 8.8125H623.767V4.8125H611.775V8.8125ZM623.767 8.8125C627.934 8.8125 630.836 9.03626 632.588 9.42833L633.462 5.52479C631.256 5.03144 627.986 4.8125 623.767 4.8125V8.8125ZM632.588 9.42833C634.35 9.8223 635.821 10.4575 637.038 11.3053L639.324 8.02285C637.625 6.83936 635.659 6.01624 633.462 5.52479L632.588 9.42833ZM637.019 11.2915C638.522 12.3656 639.727 13.8559 640.614 15.8337L644.264 14.1975C643.119 11.6441 641.486 9.56669 639.344 8.0366L637.019 11.2915ZM640.622 15.8511C641.531 17.8278 642.002 20.0516 642.002 22.5547H646.002C646.002 19.537 645.431 16.7347 644.256 14.1802L640.622 15.8511ZM642.002 22.5547C642.002 25.0578 641.531 27.2816 640.622 29.2583L644.256 30.9292C645.431 28.3747 646.002 25.5724 646.002 22.5547H642.002ZM640.614 29.2756C639.727 31.2535 638.522 32.7438 637.019 33.8178L639.344 37.0728C641.486 35.5427 643.119 33.4653 644.264 30.9119L640.614 29.2756ZM637.019 33.8178C635.805 34.6847 634.341 35.3282 632.588 35.7201L633.462 39.6236C635.668 39.1302 637.641 38.2892 639.344 37.0728L637.019 33.8178ZM632.583 35.7214C630.861 36.1118 627.963 36.3359 623.767 36.3359V40.3359C628.009 40.3359 631.283 40.1174 633.467 39.6224L632.583 35.7214ZM623.767 36.3359H621.853V40.3359H623.767V36.3359ZM621.853 36.3359H618.416V40.3359H621.853V36.3359ZM618.416 34.1641H621.853V30.1641H618.416V34.1641ZM621.853 34.1641C624.836 34.1641 627.397 33.9917 629.508 33.6271C631.589 33.2675 633.39 32.6957 634.73 31.7903L632.492 28.4754C631.827 28.9241 630.665 29.3679 628.827 29.6854C627.019 29.9979 624.703 30.1641 621.853 30.1641V34.1641ZM634.735 31.7871C637.511 29.9007 638.658 26.7389 638.658 22.9453H634.658C634.658 25.9747 633.773 27.6046 632.487 28.4786L634.735 31.7871ZM638.658 22.9453C638.658 18.9464 637.504 15.6238 634.693 13.6212L632.372 16.8788C633.728 17.845 634.658 19.6526 634.658 22.9453H638.658ZM634.703 13.6281C633.342 12.6457 631.533 12.0137 629.444 11.6155C627.333 11.213 624.793 11.0234 621.853 11.0234V15.0234C624.642 15.0234 626.913 15.205 628.695 15.5447C630.5 15.8887 631.667 16.3699 632.363 16.8719L634.703 13.6281ZM621.853 11.0234H618.416V15.0234H621.853V11.0234ZM616.416 13.0234V32.1641H620.416V13.0234H616.416ZM678 64H676V66H678V64ZM678 6.8125V4.8125H676V6.8125H678ZM708.156 6.8125H710.156V4.8125H708.156V6.8125ZM708.156 13.0234V15.0234H710.156V13.0234H708.156ZM684.797 13.0234V11.0234H682.797V13.0234H684.797ZM684.797 29.4297H682.797V31.4297H684.797V29.4297ZM708.156 29.4297H710.156V27.4297H708.156V29.4297ZM708.156 35.7578V37.7578H710.156V35.7578H708.156ZM684.797 35.7578V33.7578H682.797V35.7578H684.797ZM684.797 57.6719H682.797V59.6719H684.797V57.6719ZM708.156 57.6719H710.156V55.6719H708.156V57.6719ZM708.156 64V66H710.156V64H708.156ZM680 64V6.8125H676V64H680ZM678 8.8125H708.156V4.8125H678V8.8125ZM706.156 6.8125V13.0234H710.156V6.8125H706.156ZM708.156 11.0234H684.797V15.0234H708.156V11.0234ZM682.797 13.0234V29.4297H686.797V13.0234H682.797ZM684.797 31.4297H708.156V27.4297H684.797V31.4297ZM706.156 29.4297V35.7578H710.156V29.4297H706.156ZM708.156 33.7578H684.797V37.7578H708.156V33.7578ZM682.797 35.7578V57.6719H686.797V35.7578H682.797ZM684.797 59.6719H708.156V55.6719H684.797V59.6719ZM706.156 57.6719V64H710.156V57.6719H706.156ZM708.156 62H678V66H708.156V62ZM745.319 64H743.319V66H745.319V64ZM745.319 6.8125V4.8125H743.319V6.8125H745.319ZM767.155 7.47656L766.67 9.41685L766.686 9.421L766.703 9.42487L767.155 7.47656ZM771.881 9.66406L773.116 8.09059L773.108 8.08466L773.101 8.07881L771.881 9.66406ZM775.827 15.0156L773.982 15.7879L773.985 15.7956L775.827 15.0156ZM773.287 33.1016L774.65 34.5661L774.65 34.5656L773.287 33.1016ZM760.592 36.7344V34.7344H756.428L759.031 37.9846L760.592 36.7344ZM782.428 64V66H786.592L783.989 62.7498L782.428 64ZM773.795 64L772.207 65.2152L772.807 66H773.795V64ZM752.936 36.7344L754.524 35.5191L753.924 34.7344H752.936V36.7344ZM751.959 36.7344V34.7344H749.959V36.7344H751.959ZM751.959 64V66H753.959V64H751.959ZM751.959 12.5547V10.5547H749.959V12.5547H751.959ZM751.959 31.6953H749.959V33.6953H751.959V31.6953ZM767.819 29.6641L769.022 31.2613L769.03 31.2558L769.037 31.2502L767.819 29.6641ZM767.741 14.7812L766.489 16.3408L766.495 16.3462L766.502 16.3516L767.741 14.7812ZM747.319 64V6.8125H743.319V64H747.319ZM745.319 8.8125H758.756V4.8125H745.319V8.8125ZM758.756 8.8125C762.559 8.8125 765.151 9.03716 766.67 9.41685L767.64 5.53628C765.617 5.03054 762.61 4.8125 758.756 4.8125V8.8125ZM766.703 9.42487C768.243 9.78209 769.552 10.3958 770.662 11.2493L773.101 8.07881C771.502 6.849 769.66 6.00437 767.606 5.52826L766.703 9.42487ZM770.647 11.2375C772.038 12.3291 773.159 13.822 773.982 15.7879L777.671 14.2433C776.619 11.7301 775.11 9.65524 773.116 8.09059L770.647 11.2375ZM773.985 15.7956C774.805 17.733 775.233 19.9242 775.233 22.3984H779.233C779.233 19.456 778.723 16.7253 777.668 14.2356L773.985 15.7956ZM775.233 22.3984C775.233 26.7087 774.034 29.6743 771.925 31.6375L774.65 34.5656C777.801 31.633 779.233 27.4632 779.233 22.3984H775.233ZM771.925 31.637C769.822 33.5933 766.562 34.7344 761.803 34.7344V38.7344C767.148 38.7344 771.545 37.4536 774.65 34.5661L771.925 31.637ZM761.803 34.7344H760.592V38.7344H761.803V34.7344ZM759.031 37.9846L780.867 65.2502L783.989 62.7498L762.153 35.4842L759.031 37.9846ZM782.428 62H773.795V66H782.428V62ZM775.384 62.7848L754.524 35.5191L751.347 37.9496L772.207 65.2152L775.384 62.7848ZM752.936 34.7344H751.959V38.7344H752.936V34.7344ZM749.959 36.7344V64H753.959V36.7344H749.959ZM751.959 62H745.319V66H751.959V62ZM749.959 12.5547V31.6953H753.959V12.5547H749.959ZM751.959 33.6953H757.155V29.6953H751.959V33.6953ZM757.155 33.6953C759.884 33.6953 762.236 33.5223 764.179 33.1522C766.095 32.7873 767.775 32.2017 769.022 31.2613L766.615 28.0668C766.066 28.4806 765.07 28.9106 763.431 29.2228C761.819 29.5297 759.738 29.6953 757.155 29.6953V33.6953ZM769.037 31.2502C771.537 29.3302 772.514 26.1856 772.514 22.4766H768.514C768.514 25.5904 767.695 27.2375 766.6 28.078L769.037 31.2502ZM772.514 22.4766C772.514 18.5386 771.527 15.2208 768.979 13.2109L766.502 16.3516C767.652 17.2583 768.514 19.0708 768.514 22.4766H772.514ZM768.993 13.2217C767.729 12.2069 766.045 11.5592 764.119 11.1542C762.174 10.7451 759.842 10.5547 757.155 10.5547V14.5547C759.676 14.5547 761.712 14.7354 763.296 15.0685C764.899 15.4056 765.904 15.8713 766.489 16.3408L768.993 13.2217ZM757.155 10.5547H751.959V14.5547H757.155V10.5547ZM813.809 64H811.809V66H813.809V64ZM813.809 6.8125V4.8125H811.809V6.8125H813.809ZM820.606 6.8125H822.606V4.8125H820.606V6.8125ZM820.606 64V66H822.606V64H820.606ZM815.809 64V6.8125H811.809V64H815.809ZM813.809 8.8125H820.606V4.8125H813.809V8.8125ZM818.606 6.8125V64H822.606V6.8125H818.606ZM820.606 62H813.809V66H820.606V62ZM860.034 64H858.034V66H860.034V64ZM860.034 6.8125V4.8125H858.034V6.8125H860.034ZM890.191 6.8125H892.191V4.8125H890.191V6.8125ZM890.191 13.0234V15.0234H892.191V13.0234H890.191ZM866.831 13.0234V11.0234H864.831V13.0234H866.831ZM866.831 29.4297H864.831V31.4297H866.831V29.4297ZM890.191 29.4297H892.191V27.4297H890.191V29.4297ZM890.191 35.7578V37.7578H892.191V35.7578H890.191ZM866.831 35.7578V33.7578H864.831V35.7578H866.831ZM866.831 57.6719H864.831V59.6719H866.831V57.6719ZM890.191 57.6719H892.191V55.6719H890.191V57.6719ZM890.191 64V66H892.191V64H890.191ZM862.034 64V6.8125H858.034V64H862.034ZM860.034 8.8125H890.191V4.8125H860.034V8.8125ZM888.191 6.8125V13.0234H892.191V6.8125H888.191ZM890.191 11.0234H866.831V15.0234H890.191V11.0234ZM864.831 13.0234V29.4297H868.831V13.0234H864.831ZM866.831 31.4297H890.191V27.4297H866.831V31.4297ZM888.191 29.4297V35.7578H892.191V29.4297H888.191ZM890.191 33.7578H866.831V37.7578H890.191V33.7578ZM864.831 35.7578V57.6719H868.831V35.7578H864.831ZM866.831 59.6719H890.191V55.6719H866.831V59.6719ZM888.191 57.6719V64H892.191V57.6719H888.191ZM890.191 62H860.034V66H890.191V62ZM927.353 64H925.353V66H927.353V64ZM927.353 4.54688L928.828 3.19645L925.353 -0.600038V4.54688H927.353ZM969.189 50.25L967.714 51.6004L971.189 55.3969V50.25H969.189ZM969.189 6.8125V4.8125H967.189V6.8125H969.189ZM975.673 6.8125H977.673V4.8125H975.673V6.8125ZM975.673 66.2266L974.206 67.5852L977.673 71.3313V66.2266H975.673ZM933.838 21.0312L935.305 19.6726L931.838 15.9265V21.0312H933.838ZM933.838 64V66H935.838V64H933.838ZM929.353 64V4.54688H925.353V64H929.353ZM925.878 5.8973L967.714 51.6004L970.664 48.8996L928.828 3.19645L925.878 5.8973ZM971.189 50.25V6.8125H967.189V50.25H971.189ZM969.189 8.8125H975.673V4.8125H969.189V8.8125ZM973.673 6.8125V66.2266H977.673V6.8125H973.673ZM977.141 64.8679L935.305 19.6726L932.37 22.3899L974.206 67.5852L977.141 64.8679ZM931.838 21.0312V64H935.838V21.0312H931.838ZM933.838 62H927.353V66H933.838V62ZM1061.39 20.4844L1059.92 21.8393L1063.39 25.6079V20.4844H1061.39ZM1052.64 13.9219L1051.8 15.7374L1051.81 15.7431L1052.64 13.9219ZM1033.5 13.6094L1032.72 11.7677L1032.71 11.7702L1033.5 13.6094ZM1026.04 18.7266L1027.48 20.1158L1027.48 20.1148L1026.04 18.7266ZM1021.12 26.3438L1022.98 27.0745L1022.98 27.0686L1021.12 26.3438ZM1020.45 42.9453L1018.53 43.5036L1020.45 42.9453ZM1023.38 49.1172L1021.74 50.258L1021.75 50.2685L1023.38 49.1172ZM1031.82 56.6562L1030.88 58.4225L1030.89 58.4268L1030.9 58.4311L1031.82 56.6562ZM1061.39 50.25H1063.39V44.8612L1059.87 48.9452L1061.39 50.25ZM1061.39 59.2734L1062.56 60.8928L1063.39 60.294V59.2734H1061.39ZM1052.21 63.9609L1052.82 65.8658L1052.83 65.8628L1052.21 63.9609ZM1033.27 64.1562L1033.87 62.2504L1033.86 62.2479L1033.86 62.2454L1033.27 64.1562ZM1025.22 60.25L1024.08 61.8933L1024.09 61.8981L1025.22 60.25ZM1015.65 49.5859L1013.87 50.5066L1013.88 50.5152L1015.65 49.5859ZM1014.55 23.6875L1012.7 22.9287L1012.7 22.9355L1014.55 23.6875ZM1021.31 13.8438L1019.92 12.404L1019.92 12.4111L1021.31 13.8438ZM1031 7.55469L1031.73 9.41822L1031.74 9.41352L1031 7.55469ZM1052.21 6.96875L1051.59 8.86929L1051.6 8.87166L1051.6 8.87397L1052.21 6.96875ZM1061.39 11.6172H1063.39V10.5744L1062.54 9.9774L1061.39 11.6172ZM1062.86 19.1294C1059.98 15.9997 1056.85 13.6362 1053.47 12.1006L1051.81 15.7431C1054.63 17.0201 1057.33 19.0316 1059.92 21.8393L1062.86 19.1294ZM1053.48 12.1064C1050.09 10.541 1046.38 9.77344 1042.37 9.77344V13.7734C1045.86 13.7734 1048.99 14.4382 1051.8 15.7373L1053.48 12.1064ZM1042.37 9.77344C1039.07 9.77344 1035.85 10.4434 1032.72 11.7677L1034.28 15.4511C1036.93 14.3274 1039.62 13.7734 1042.37 13.7734V9.77344ZM1032.71 11.7702C1029.61 13.0965 1026.9 14.9534 1024.6 17.3383L1027.48 20.1148C1029.4 18.1247 1031.66 16.5701 1034.29 15.4485L1032.71 11.7702ZM1024.6 17.3374C1022.24 19.7855 1020.45 22.5481 1019.25 25.6189L1022.98 27.0686C1023.97 24.5144 1025.47 22.1989 1027.48 20.1158L1024.6 17.3374ZM1019.26 25.613C1018.06 28.6607 1017.48 31.9986 1017.48 35.6016H1021.48C1021.48 32.4337 1021.99 29.5997 1022.98 27.0745L1019.26 25.613ZM1017.48 35.6016C1017.48 38.421 1017.82 41.0595 1018.53 43.5036L1022.37 42.387C1021.78 40.352 1021.48 38.0946 1021.48 35.6016H1017.48ZM1018.53 43.5036C1019.24 45.9465 1020.31 48.2013 1021.74 50.258L1025.03 47.9764C1023.85 46.2831 1022.97 44.4233 1022.37 42.387L1018.53 43.5036ZM1021.75 50.2685C1024.21 53.7661 1027.26 56.4962 1030.88 58.4225L1032.76 54.89C1029.72 53.2746 1027.14 50.9787 1025.02 47.9659L1021.75 50.2685ZM1030.9 58.4311C1034.55 60.3276 1038.49 61.2734 1042.68 61.2734V57.2734C1039.11 57.2734 1035.81 56.4745 1032.74 54.8814L1030.9 58.4311ZM1042.68 61.2734C1046.61 61.2734 1050.3 60.4567 1053.71 58.8085L1051.97 55.2071C1049.13 56.5797 1046.04 57.2734 1042.68 57.2734V61.2734ZM1053.71 58.8085C1057.11 57.1634 1060.17 54.7287 1062.91 51.5548L1059.87 48.9452C1057.45 51.7609 1054.81 53.8314 1051.97 55.2071L1053.71 58.8085ZM1059.39 50.25V59.2734H1063.39V50.25H1059.39ZM1060.22 57.654C1057.54 59.5908 1054.67 61.057 1051.59 62.0591L1052.83 65.8628C1056.31 64.7294 1059.56 63.0707 1062.56 60.8928L1060.22 57.654ZM1051.6 62.0561C1048.55 63.0334 1045.38 63.5234 1042.09 63.5234V67.5234C1045.79 67.5234 1049.36 66.9718 1052.82 65.8658L1051.6 62.0561ZM1042.09 63.5234C1039.28 63.5234 1036.54 63.0992 1033.87 62.2504L1032.66 66.0621C1035.72 67.0363 1038.87 67.5234 1042.09 67.5234V63.5234ZM1033.86 62.2454C1031.19 61.4204 1028.69 60.2076 1026.35 58.6019L1024.09 61.8981C1026.75 63.7299 1029.62 65.1213 1032.68 66.0671L1033.86 62.2454ZM1026.36 58.6067C1022.44 55.8876 1019.47 52.5718 1017.42 48.6567L1013.88 50.5152C1016.25 55.0376 1019.66 58.8311 1024.08 61.8933L1026.36 58.6067ZM1017.42 48.6653C1015.39 44.7489 1014.37 40.4321 1014.37 35.6797H1010.37C1010.37 41.0314 1011.53 45.9855 1013.87 50.5066L1017.42 48.6653ZM1014.37 35.6797C1014.37 31.5019 1015.06 27.7644 1016.41 24.4395L1012.7 22.9355C1011.13 26.7981 1010.37 31.0554 1010.37 35.6797H1014.37ZM1016.41 24.4463C1017.78 21.0992 1019.87 18.0431 1022.71 15.2764L1019.92 12.4111C1016.72 15.5299 1014.3 19.0363 1012.7 22.9287L1016.41 24.4463ZM1022.7 15.2834C1025.44 12.6423 1028.45 10.6961 1031.73 9.41818L1030.27 5.69119C1026.47 7.1737 1023.02 9.42016 1019.92 12.4041L1022.7 15.2834ZM1031.74 9.41352C1035.02 8.10947 1038.64 7.44531 1042.6 7.44531V3.44531C1038.18 3.44531 1034.06 4.18741 1030.26 5.69585L1031.74 9.41352ZM1042.6 7.44531C1045.7 7.44531 1048.69 7.92049 1051.59 8.86929L1052.83 5.06821C1049.53 3.98576 1046.12 3.44531 1042.6 3.44531V7.44531ZM1051.6 8.87397C1054.49 9.79502 1057.37 11.2475 1060.25 13.257L1062.54 9.9774C1059.37 7.7681 1056.13 6.12164 1052.82 5.06353L1051.6 8.87397ZM1059.39 11.6172V20.4844H1063.39V11.6172H1059.39ZM1098.71 64H1096.71V66H1098.71V64ZM1098.71 6.8125V4.8125H1096.71V6.8125H1098.71ZM1105.51 6.8125H1107.51V4.8125H1105.51V6.8125ZM1105.51 64V66H1107.51V64H1105.51ZM1100.71 64V6.8125H1096.71V64H1100.71ZM1098.71 8.8125H1105.51V4.8125H1098.71V8.8125ZM1103.51 6.8125V64H1107.51V6.8125H1103.51ZM1105.51 62H1098.71V66H1105.51V62ZM1163.02 19.5859L1164.86 18.7923L1163.02 14.5455L1161.18 18.7923L1163.02 19.5859ZM1153.92 40.6406L1152.08 39.847L1150.88 42.6406H1153.92V40.6406ZM1172.12 40.6406V42.6406H1175.17L1173.96 39.847L1172.12 40.6406ZM1163.02 4.54688L1164.85 3.74511L1163.02 -0.448423L1161.19 3.74713L1163.02 4.54688ZM1189.04 64V66H1192.09L1190.87 63.1982L1189.04 64ZM1181.65 64L1179.81 64.7794L1180.33 66H1181.65V64ZM1174.23 46.4609L1176.07 45.6815L1175.56 44.4609H1174.23V46.4609ZM1151.89 46.4609V44.4609H1150.56L1150.05 45.6815L1151.89 46.4609ZM1144.47 64V66H1145.79L1146.31 64.7794L1144.47 64ZM1137.08 64L1135.25 63.2003L1134.03 66H1137.08V64ZM1161.18 18.7923L1152.08 39.847L1155.75 41.4342L1164.86 20.3795L1161.18 18.7923ZM1153.92 42.6406H1172.12V38.6406H1153.92V42.6406ZM1173.96 39.847L1164.86 18.7923L1161.18 20.3795L1170.29 41.4342L1173.96 39.847ZM1161.19 5.34864L1187.2 64.8018L1190.87 63.1982L1164.85 3.74511L1161.19 5.34864ZM1189.04 62H1181.65V66H1189.04V62ZM1183.49 63.2206L1176.07 45.6815L1172.39 47.2404L1179.81 64.7794L1183.49 63.2206ZM1174.23 44.4609H1151.89V48.4609H1174.23V44.4609ZM1150.05 45.6815L1142.62 63.2206L1146.31 64.7794L1153.73 47.2404L1150.05 45.6815ZM1144.47 62H1137.08V66H1144.47V62ZM1138.92 64.7997L1164.85 5.34662L1161.19 3.74713L1135.25 63.2003L1138.92 64.7997Z" fill="#E6DBBF"/>
</g>
<defs>
<filter id="filter0_d_840_16" x="0.0234375" y="0.546875" width="1208.01" height="81.6797" filterUnits="userSpaceOnUse" color-interpolation-filters="sRGB">
<feFlood flood-opacity="0" result="BackgroundImageFix"/>
<feColorMatrix in="SourceAlpha" type="matrix" values="0 0 0 0 0 0 0 0 0 0 0 0 0 0 0 0 0 0 127 0" result="hardAlpha"/>
<feOffset dx="9" dy="6"/>
<feGaussianBlur stdDeviation="5"/>
<feComposite in2="hardAlpha" operator="out"/>
<feColorMatrix type="matrix" values="0 0 0 0 0 0 0 0 0 0 0 0 0 0 0 0 0 0 0.5 0"/>
<feBlend mode="normal" in2="BackgroundImageFix" result="effect1_dropShadow_840_16"/>
<feBlend mode="normal" in="SourceGraphic" in2="effect1_dropShadow_840_16" result="shape"/>
</filter>
</defs>
</svg>
