<svg width="1061" height="83" viewBox="0 0 1061 83" fill="none" xmlns="http://www.w3.org/2000/svg">
<g filter="url(#filter0_d_841_18)">
<path d="M1.875 64V6.8125H32.0312V13.0234H8.67188V29.4297H32.0312V35.7578H8.67188V64H1.875ZM86.3516 59.1172C89.4766 59.1172 92.4453 58.5312 95.2578 57.3594C98.0964 56.1615 100.648 54.4297 102.914 52.1641C105.154 49.9245 106.859 47.3854 108.031 44.5469C109.203 41.7083 109.789 38.7005 109.789 35.5234C109.789 32.3203 109.19 29.2734 107.992 26.3828C106.82 23.4922 105.128 20.9401 102.914 18.7266C100.674 16.487 98.1354 14.7812 95.2969 13.6094C92.4844 12.4375 89.5026 11.8516 86.3516 11.8516C83.1745 11.8516 80.1667 12.4375 77.3281 13.6094C74.4896 14.7812 71.9766 16.487 69.7891 18.7266C67.5495 20.9922 65.8438 23.5573 64.6719 26.4219C63.5 29.2865 62.9141 32.3203 62.9141 35.5234C62.9141 38.7005 63.487 41.6953 64.6328 44.5078C65.8047 47.3203 67.5234 49.8724 69.7891 52.1641C72.0807 54.4557 74.6198 56.1875 77.4062 57.3594C80.2188 58.5312 83.2005 59.1172 86.3516 59.1172ZM116.898 35.5234C116.898 39.612 116.143 43.4661 114.633 47.0859C113.122 50.7057 110.922 53.9219 108.031 56.7344C105.141 59.5469 101.807 61.7214 98.0312 63.2578C94.2812 64.7682 90.388 65.5234 86.3516 65.5234C82.3151 65.5234 78.4219 64.7682 74.6719 63.2578C70.9479 61.7214 67.6406 59.5469 64.75 56.7344C61.8333 53.8958 59.6068 50.6667 58.0703 47.0469C56.5599 43.4271 55.8047 39.5859 55.8047 35.5234C55.8047 31.4349 56.5599 27.5807 58.0703 23.9609C59.6068 20.3151 61.8333 17.0729 64.75 14.2344C67.6146 11.4479 70.9219 9.29948 74.6719 7.78906C78.4219 6.27865 82.3151 5.52344 86.3516 5.52344C90.4141 5.52344 94.3203 6.27865 98.0703 7.78906C101.846 9.29948 105.167 11.4479 108.031 14.2344C110.922 17.0469 113.122 20.276 114.633 23.9219C116.143 27.5417 116.898 31.4089 116.898 35.5234ZM190.438 20.4844C187.703 17.5156 184.786 15.3281 181.688 13.9219C178.589 12.4896 175.164 11.7734 171.414 11.7734C168.393 11.7734 165.438 12.3854 162.547 13.6094C159.682 14.8333 157.195 16.5391 155.086 18.7266C152.898 20.9922 151.258 23.5312 150.164 26.3438C149.07 29.1302 148.523 32.2161 148.523 35.6016C148.523 38.2578 148.849 40.7057 149.5 42.9453C150.151 45.1849 151.128 47.2422 152.43 49.1172C154.721 52.3724 157.534 54.8854 160.867 56.6562C164.227 58.401 167.846 59.2734 171.727 59.2734C175.372 59.2734 178.758 58.5182 181.883 57.0078C185.008 55.4974 187.859 53.2448 190.438 50.25V59.2734C187.599 61.3307 184.539 62.8932 181.258 63.9609C178.003 65.0026 174.63 65.5234 171.141 65.5234C168.12 65.5234 165.177 65.0677 162.312 64.1562C159.448 63.2708 156.766 61.9688 154.266 60.25C150.099 57.3594 146.909 53.8047 144.695 49.5859C142.508 45.3672 141.414 40.7318 141.414 35.6797C141.414 31.2786 142.143 27.2812 143.602 23.6875C145.086 20.0677 147.339 16.7865 150.359 13.8438C153.276 11.0312 156.505 8.9349 160.047 7.55469C163.589 6.14844 167.456 5.44531 171.648 5.44531C174.956 5.44531 178.159 5.95312 181.258 6.96875C184.357 7.95833 187.417 9.50781 190.438 11.6172V20.4844ZM246.008 59.1172C249.133 59.1172 252.102 58.5312 254.914 57.3594C257.753 56.1615 260.305 54.4297 262.57 52.1641C264.81 49.9245 266.516 47.3854 267.688 44.5469C268.859 41.7083 269.445 38.7005 269.445 35.5234C269.445 32.3203 268.846 29.2734 267.648 26.3828C266.477 23.4922 264.784 20.9401 262.57 18.7266C260.331 16.487 257.792 14.7812 254.953 13.6094C252.141 12.4375 249.159 11.8516 246.008 11.8516C242.831 11.8516 239.823 12.4375 236.984 13.6094C234.146 14.7812 231.633 16.487 229.445 18.7266C227.206 20.9922 225.5 23.5573 224.328 26.4219C223.156 29.2865 222.57 32.3203 222.57 35.5234C222.57 38.7005 223.143 41.6953 224.289 44.5078C225.461 47.3203 227.18 49.8724 229.445 52.1641C231.737 54.4557 234.276 56.1875 237.062 57.3594C239.875 58.5312 242.857 59.1172 246.008 59.1172ZM276.555 35.5234C276.555 39.612 275.799 43.4661 274.289 47.0859C272.779 50.7057 270.578 53.9219 267.688 56.7344C264.797 59.5469 261.464 61.7214 257.688 63.2578C253.938 64.7682 250.044 65.5234 246.008 65.5234C241.971 65.5234 238.078 64.7682 234.328 63.2578C230.604 61.7214 227.297 59.5469 224.406 56.7344C221.49 53.8958 219.263 50.6667 217.727 47.0469C216.216 43.4271 215.461 39.5859 215.461 35.5234C215.461 31.4349 216.216 27.5807 217.727 23.9609C219.263 20.3151 221.49 17.0729 224.406 14.2344C227.271 11.4479 230.578 9.29948 234.328 7.78906C238.078 6.27865 241.971 5.52344 246.008 5.52344C250.07 5.52344 253.977 6.27865 257.727 7.78906C261.503 9.29948 264.823 11.4479 267.688 14.2344C270.578 17.0469 272.779 20.276 274.289 23.9219C275.799 27.5417 276.555 31.4089 276.555 35.5234ZM343.281 64V6.8125H373.438V13.0234H350.078V29.4297H373.438V35.7578H350.078V57.6719H373.438V64H343.281ZM401 64V4.54688L442.836 50.25V6.8125H449.32V66.2266L407.484 21.0312V64H401ZM546.555 59.1172C549.68 59.1172 552.648 58.5312 555.461 57.3594C558.299 56.1615 560.852 54.4297 563.117 52.1641C565.357 49.9245 567.062 47.3854 568.234 44.5469C569.406 41.7083 569.992 38.7005 569.992 35.5234C569.992 32.3203 569.393 29.2734 568.195 26.3828C567.023 23.4922 565.331 20.9401 563.117 18.7266C560.878 16.487 558.339 14.7812 555.5 13.6094C552.688 12.4375 549.706 11.8516 546.555 11.8516C543.378 11.8516 540.37 12.4375 537.531 13.6094C534.693 14.7812 532.18 16.487 529.992 18.7266C527.753 20.9922 526.047 23.5573 524.875 26.4219C523.703 29.2865 523.117 32.3203 523.117 35.5234C523.117 38.7005 523.69 41.6953 524.836 44.5078C526.008 47.3203 527.727 49.8724 529.992 52.1641C532.284 54.4557 534.823 56.1875 537.609 57.3594C540.422 58.5312 543.404 59.1172 546.555 59.1172ZM577.102 35.5234C577.102 39.612 576.346 43.4661 574.836 47.0859C573.326 50.7057 571.125 53.9219 568.234 56.7344C565.344 59.5469 562.01 61.7214 558.234 63.2578C554.484 64.7682 550.591 65.5234 546.555 65.5234C542.518 65.5234 538.625 64.7682 534.875 63.2578C531.151 61.7214 527.844 59.5469 524.953 56.7344C522.036 53.8958 519.81 50.6667 518.273 47.0469C516.763 43.4271 516.008 39.5859 516.008 35.5234C516.008 31.4349 516.763 27.5807 518.273 23.9609C519.81 20.3151 522.036 17.0729 524.953 14.2344C527.818 11.4479 531.125 9.29948 534.875 7.78906C538.625 6.27865 542.518 5.52344 546.555 5.52344C550.617 5.52344 554.523 6.27865 558.273 7.78906C562.049 9.29948 565.37 11.4479 568.234 14.2344C571.125 17.0469 573.326 20.276 574.836 23.9219C576.346 27.5417 577.102 31.4089 577.102 35.5234ZM604.234 64V6.8125H616.148C620.341 6.8125 623.427 7.03385 625.406 7.47656C627.411 7.89323 629.13 8.6224 630.562 9.66406C632.385 11.0182 633.792 12.763 634.781 14.8984C635.797 17.0078 636.305 19.3255 636.305 21.8516C636.305 24.8724 635.576 27.3984 634.117 29.4297C632.685 31.4609 630.589 32.8802 627.828 33.6875C631.214 34.2083 633.883 35.7318 635.836 38.2578C637.815 40.7578 638.805 43.9219 638.805 47.75C638.805 50.0417 638.388 52.2292 637.555 54.3125C636.721 56.3958 635.562 58.1797 634.078 59.6641C632.464 61.2526 630.471 62.3724 628.102 63.0234C625.732 63.6745 621.747 64 616.148 64H604.234ZM610.875 37.2031V58.0625H616.148C619.768 58.0625 622.372 57.9193 623.961 57.6328C625.576 57.3464 626.865 56.8516 627.828 56.1484C629 55.3151 629.924 54.1562 630.602 52.6719C631.279 51.1875 631.617 49.5469 631.617 47.75C631.617 45.6667 631.214 43.8568 630.406 42.3203C629.599 40.7839 628.427 39.5859 626.891 38.7266C625.979 38.1797 624.924 37.7891 623.727 37.5547C622.529 37.3203 620.667 37.2031 618.141 37.2031H616.148H610.875ZM610.875 12.7109V31.8516H616.148C620.992 31.8516 624.404 31.1484 626.383 29.7422C628.362 28.3359 629.352 25.9661 629.352 22.6328C629.352 18.9609 628.427 16.3958 626.578 14.9375C624.755 13.4531 621.279 12.7109 616.148 12.7109H610.875ZM676.133 6.8125H683.008V51.4219C683.008 56.2135 681.94 59.7682 679.805 62.0859C677.695 64.3776 674.44 65.5234 670.039 65.5234C667.695 65.5234 665.573 65.0547 663.672 64.1172C661.797 63.2057 660.026 61.7865 658.359 59.8594L662.852 55.3672C664.258 56.8255 665.56 57.8672 666.758 58.4922C667.956 59.1172 669.206 59.4297 670.508 59.4297C672.565 59.4297 674.01 58.6615 674.844 57.125C675.703 55.5885 676.133 52.5677 676.133 48.0625V6.8125ZM712.25 64V6.8125H742.406V13.0234H719.047V29.4297H742.406V35.7578H719.047V57.6719H742.406V64H712.25ZM779.969 64V13.2969H763.797V6.8125H802.938V13.2969H786.844V64H779.969ZM826.594 64V6.8125H833.391V64H826.594ZM879.547 66.2266L855.367 6.8125H862.75L879.547 50.5625L896.266 6.8125H903.609L879.547 66.2266ZM952.148 59.1172C955.273 59.1172 958.242 58.5312 961.055 57.3594C963.893 56.1615 966.445 54.4297 968.711 52.1641C970.951 49.9245 972.656 47.3854 973.828 44.5469C975 41.7083 975.586 38.7005 975.586 35.5234C975.586 32.3203 974.987 29.2734 973.789 26.3828C972.617 23.4922 970.924 20.9401 968.711 18.7266C966.471 16.487 963.932 14.7812 961.094 13.6094C958.281 12.4375 955.299 11.8516 952.148 11.8516C948.971 11.8516 945.964 12.4375 943.125 13.6094C940.286 14.7812 937.773 16.487 935.586 18.7266C933.346 20.9922 931.641 23.5573 930.469 26.4219C929.297 29.2865 928.711 32.3203 928.711 35.5234C928.711 38.7005 929.284 41.6953 930.43 44.5078C931.602 47.3203 933.32 49.8724 935.586 52.1641C937.878 54.4557 940.417 56.1875 943.203 57.3594C946.016 58.5312 948.997 59.1172 952.148 59.1172ZM982.695 35.5234C982.695 39.612 981.94 43.4661 980.43 47.0859C978.919 50.7057 976.719 53.9219 973.828 56.7344C970.938 59.5469 967.604 61.7214 963.828 63.2578C960.078 64.7682 956.185 65.5234 952.148 65.5234C948.112 65.5234 944.219 64.7682 940.469 63.2578C936.745 61.7214 933.438 59.5469 930.547 56.7344C927.63 53.8958 925.404 50.6667 923.867 47.0469C922.357 43.4271 921.602 39.5859 921.602 35.5234C921.602 31.4349 922.357 27.5807 923.867 23.9609C925.404 20.3151 927.63 17.0729 930.547 14.2344C933.411 11.4479 936.719 9.29948 940.469 7.78906C944.219 6.27865 948.112 5.52344 952.148 5.52344C956.211 5.52344 960.117 6.27865 963.867 7.78906C967.643 9.29948 970.964 11.4479 973.828 14.2344C976.719 17.0469 978.919 20.276 980.43 23.9219C981.94 27.5417 982.695 31.4089 982.695 35.5234ZM1030.65 32.2422C1034.37 33.8307 1037.17 35.9401 1039.05 38.5703C1040.95 41.2005 1041.9 44.3125 1041.9 47.9062C1041.9 53.1667 1040.22 57.4115 1036.86 60.6406C1033.53 63.8438 1029.1 65.4453 1023.58 65.4453C1019.07 65.4453 1015.3 64.2995 1012.25 62.0078C1009.2 59.6901 1007.15 56.4089 1006.08 52.1641L1012.25 49.1172C1013.08 52.5807 1014.45 55.2109 1016.35 57.0078C1018.28 58.7786 1020.69 59.6641 1023.58 59.6641C1026.99 59.6641 1029.75 58.6875 1031.86 56.7344C1033.97 54.7552 1035.02 52.1901 1035.02 49.0391C1035.02 46.487 1034.28 44.2734 1032.8 42.3984C1031.34 40.4974 1029.12 38.8958 1026.16 37.5938L1019.2 34.625C1015.4 33.0365 1012.56 30.9922 1010.69 28.4922C1008.84 25.9922 1007.91 22.9974 1007.91 19.5078C1007.91 15.4453 1009.42 12.0859 1012.45 9.42969C1015.47 6.77344 1019.32 5.44531 1024.01 5.44531C1027.45 5.44531 1030.41 6.17448 1032.91 7.63281C1035.44 9.09115 1037.41 11.2396 1038.81 14.0781L1033.19 17.6719C1031.91 15.4583 1030.48 13.8177 1028.89 12.75C1027.3 11.6562 1025.51 11.1094 1023.5 11.1094C1020.95 11.1094 1018.85 11.8906 1017.21 13.4531C1015.6 15.0156 1014.79 17.0078 1014.79 19.4297C1014.79 21.4609 1015.41 23.2188 1016.66 24.7031C1017.91 26.1875 1019.85 27.5026 1022.48 28.6484L1030.65 32.2422Z" fill="#E6DBBF"/>
</g>
<defs>
<filter id="filter0_d_841_18" x="0.875" y="0.546875" width="1060.02" height="81.6797" filterUnits="userSpaceOnUse" color-interpolation-filters="sRGB">
<feFlood flood-opacity="0" result="BackgroundImageFix"/>
<feColorMatrix in="SourceAlpha" type="matrix" values="0 0 0 0 0 0 0 0 0 0 0 0 0 0 0 0 0 0 127 0" result="hardAlpha"/>
<feOffset dx="9" dy="6"/>
<feGaussianBlur stdDeviation="5"/>
<feComposite in2="hardAlpha" operator="out"/>
<feColorMatrix type="matrix" values="0 0 0 0 0 0 0 0 0 0 0 0 0 0 0 0 0 0 0.5 0"/>
<feBlend mode="normal" in2="BackgroundImageFix" result="effect1_dropShadow_841_18"/>
<feBlend mode="normal" in="SourceGraphic" in2="effect1_dropShadow_841_18" result="shape"/>
</filter>
</defs>
</svg>
