<svg width="1244" height="100" viewBox="0 0 1244 100" fill="none" xmlns="http://www.w3.org/2000/svg">
<g filter="url(#filter0_d_841_19)">
<path d="M1.875 81H-0.125V83H1.875V81ZM1.875 23.8125V21.8125H-0.125V23.8125H1.875ZM8.67188 23.8125H10.6719V21.8125H8.67188V23.8125ZM8.67188 45.8047H6.67188V47.8047H8.67188V45.8047ZM39.0625 45.8047V47.8047H41.0625V45.8047H39.0625ZM39.0625 23.8125V21.8125H37.0625V23.8125H39.0625ZM45.9766 23.8125H47.9766V21.8125H45.9766V23.8125ZM45.9766 81V83H47.9766V81H45.9766ZM39.0625 81H37.0625V83H39.0625V81ZM39.0625 52.2891H41.0625V50.2891H39.0625V52.2891ZM8.67188 52.2891V50.2891H6.67188V52.2891H8.67188ZM8.67188 81V83H10.6719V81H8.67188ZM3.875 81V23.8125H-0.125V81H3.875ZM1.875 25.8125H8.67188V21.8125H1.875V25.8125ZM6.67188 23.8125V45.8047H10.6719V23.8125H6.67188ZM8.67188 47.8047H39.0625V43.8047H8.67188V47.8047ZM41.0625 45.8047V23.8125H37.0625V45.8047H41.0625ZM39.0625 25.8125H45.9766V21.8125H39.0625V25.8125ZM43.9766 23.8125V81H47.9766V23.8125H43.9766ZM45.9766 79H39.0625V83H45.9766V79ZM41.0625 81V52.2891H37.0625V81H41.0625ZM39.0625 50.2891H8.67188V54.2891H39.0625V50.2891ZM6.67188 52.2891V81H10.6719V52.2891H6.67188ZM8.67188 79H1.875V83H8.67188V79ZM96.5734 36.5859L98.4093 35.7923L96.5734 31.5455L94.7376 35.7923L96.5734 36.5859ZM87.4719 57.6406L85.6361 56.847L84.4284 59.6406H87.4719V57.6406ZM105.675 57.6406V59.6406H108.718L107.511 56.847L105.675 57.6406ZM96.5734 21.5469L98.4057 20.7451L96.5707 16.5516L94.7403 20.7471L96.5734 21.5469ZM122.589 81V83H125.647L124.421 80.1982L122.589 81ZM115.206 81L113.364 81.7794L113.881 83H115.206V81ZM107.784 63.4609L109.626 62.6815L109.11 61.4609H107.784V63.4609ZM85.4406 63.4609V61.4609H84.1153L83.5988 62.6815L85.4406 63.4609ZM78.0188 81V83H79.3441L79.8606 81.7794L78.0188 81ZM70.6359 81L68.8028 80.2003L67.5814 83H70.6359V81ZM94.7376 35.7923L85.6361 56.847L89.3077 58.4342L98.4093 37.3795L94.7376 35.7923ZM87.4719 59.6406H105.675V55.6406H87.4719V59.6406ZM107.511 56.847L98.4093 35.7923L94.7376 37.3795L103.839 58.4342L107.511 56.847ZM94.7412 22.3486L120.757 81.8018L124.421 80.1982L98.4057 20.7451L94.7412 22.3486ZM122.589 79H115.206V83H122.589V79ZM117.048 80.2206L109.626 62.6815L105.943 64.2404L113.364 81.7794L117.048 80.2206ZM107.784 61.4609H85.4406V65.4609H107.784V61.4609ZM83.5988 62.6815L76.1769 80.2206L79.8606 81.7794L87.2825 64.2404L83.5988 62.6815ZM78.0188 79H70.6359V83H78.0188V79ZM72.4691 81.7997L98.4066 22.3466L94.7403 20.7471L68.8028 80.2003L72.4691 81.7997ZM147.288 81H145.288V83H147.288V81ZM147.288 23.8125V21.8125H145.288V23.8125H147.288ZM168.459 24.4766L168.023 26.4283L168.038 26.4316L168.052 26.4347L168.459 24.4766ZM173.616 26.6641L174.808 25.0586L174.8 25.0525L174.792 25.0466L173.616 26.6641ZM177.834 31.8984L176.02 32.7394L176.026 32.7528L176.032 32.7661L177.834 31.8984ZM177.17 46.4297L175.546 45.2633L175.541 45.2702L175.536 45.2771L177.17 46.4297ZM170.881 50.6875L170.32 48.7679L170.577 52.6642L170.881 50.6875ZM178.889 55.2578L177.307 56.4812L177.314 56.4902L177.321 56.4992L178.889 55.2578ZM180.608 71.3125L182.465 72.0553L180.608 71.3125ZM177.131 76.6641L178.534 78.0897L178.54 78.084L178.545 78.0783L177.131 76.6641ZM153.928 54.2031V52.2031H151.928V54.2031H153.928ZM153.928 75.0625H151.928V77.0625H153.928V75.0625ZM167.014 74.6328L166.665 72.6636L166.659 72.6646L167.014 74.6328ZM170.881 73.1484L169.722 71.5185L169.712 71.5256L169.702 71.5329L170.881 73.1484ZM169.944 55.7266L168.915 57.4415L168.941 57.4572L168.967 57.4721L169.944 55.7266ZM153.928 29.7109V27.7109H151.928V29.7109H153.928ZM153.928 48.8516H151.928V50.8516H153.928V48.8516ZM169.631 31.9375L168.368 33.4884L168.38 33.4982L168.393 33.5078L169.631 31.9375ZM149.288 81V23.8125H145.288V81H149.288ZM147.288 25.8125H159.202V21.8125H147.288V25.8125ZM159.202 25.8125C163.368 25.8125 166.27 26.0363 168.023 26.4283L168.896 22.5248C166.69 22.0314 163.42 21.8125 159.202 21.8125V25.8125ZM168.052 26.4347C169.823 26.8027 171.27 27.4308 172.439 28.2815L174.792 25.0466C173.097 23.8139 171.106 22.9838 168.866 22.5184L168.052 26.4347ZM172.423 28.2696C173.968 29.4173 175.165 30.8952 176.02 32.7394L179.649 31.0575C178.524 28.6308 176.909 26.6191 174.808 25.0586L172.423 28.2696ZM176.032 32.7661C176.908 34.5838 177.358 36.6018 177.358 38.8516H181.358C181.358 36.0493 180.792 33.4318 179.636 31.0308L176.032 32.7661ZM177.358 38.8516C177.358 41.5428 176.713 43.6377 175.546 45.2633L178.795 47.5961C180.545 45.1592 181.358 42.202 181.358 38.8516H177.358ZM175.536 45.2771C174.404 46.8821 172.718 48.0667 170.32 48.7679L171.443 52.6071C174.566 51.6937 177.072 50.0398 178.805 47.5822L175.536 45.2771ZM170.577 52.6642C173.496 53.1133 175.692 54.3921 177.307 56.4812L180.471 54.0345C178.18 51.0714 175.037 49.3033 171.185 48.7108L170.577 52.6642ZM177.321 56.4992C178.967 58.5789 179.858 61.279 179.858 64.75H183.858C183.858 60.5648 182.769 56.9367 180.457 54.0164L177.321 56.4992ZM179.858 64.75C179.858 66.7928 179.488 68.7277 178.751 70.5697L182.465 72.0553C183.395 69.7306 183.858 67.2906 183.858 64.75H179.858ZM178.751 70.5697C178.011 72.4191 176.997 73.9699 175.717 75.2498L178.545 78.0783C180.234 76.3894 181.538 74.3725 182.465 72.0553L178.751 70.5697ZM175.729 75.2384C174.378 76.5675 172.694 77.5264 170.625 78.0949L171.685 81.952C174.355 81.2184 176.656 79.9377 178.534 78.0897L175.729 75.2384ZM170.625 78.0949C168.537 78.6684 164.79 79 159.202 79V83C164.811 83 169.032 82.6806 171.685 81.952L170.625 78.0949ZM159.202 79H147.288V83H159.202V79ZM151.928 54.2031V75.0625H155.928V54.2031H151.928ZM153.928 77.0625H159.202V73.0625H153.928V77.0625ZM159.202 77.0625C162.831 77.0625 165.59 76.9218 167.369 76.6011L166.659 72.6646C165.261 72.9167 162.812 73.0625 159.202 73.0625V77.0625ZM167.363 76.6021C169.172 76.2812 170.776 75.7009 172.06 74.764L169.702 71.5329C169.059 72.0022 168.086 72.4115 166.665 72.6636L167.363 76.6021ZM172.04 74.7783C173.536 73.7149 174.671 72.2625 175.474 70.5019L171.835 68.8419C171.284 70.05 170.57 70.9153 169.722 71.5185L172.04 74.7783ZM175.474 70.5019C176.282 68.7316 176.67 66.804 176.67 64.75H172.67C172.67 66.2898 172.382 67.6434 171.835 68.8419L175.474 70.5019ZM176.67 64.75C176.67 62.4071 176.215 60.2655 175.23 58.3901L171.689 60.2506C172.318 61.448 172.67 62.9263 172.67 64.75H176.67ZM175.23 58.3901C174.24 56.5055 172.789 55.0267 170.92 53.981L168.967 57.4721C170.171 58.1452 171.065 59.0622 171.689 60.2506L175.23 58.3901ZM170.973 54.0116C169.835 53.329 168.556 52.8643 167.164 52.5919L166.396 56.5175C167.399 56.7138 168.229 57.0304 168.915 57.4415L170.973 54.0116ZM167.164 52.5919C165.766 52.3184 163.743 52.2031 161.194 52.2031V56.2031C163.697 56.2031 165.398 56.3222 166.396 56.5175L167.164 52.5919ZM161.194 52.2031H159.202V56.2031H161.194V52.2031ZM159.202 52.2031H153.928V56.2031H159.202V52.2031ZM151.928 29.7109V48.8516H155.928V29.7109H151.928ZM153.928 50.8516H159.202V46.8516H153.928V50.8516ZM159.202 50.8516C164.116 50.8516 168.076 50.1619 170.594 48.3725L168.278 45.1118C166.837 46.135 163.974 46.8516 159.202 46.8516V50.8516ZM170.594 48.3725C173.284 46.4616 174.405 43.3521 174.405 39.6328H170.405C170.405 42.5802 169.546 44.2102 168.278 45.1118L170.594 48.3725ZM174.405 39.6328C174.405 35.6948 173.418 32.3771 170.87 30.3672L168.393 33.5078C169.542 34.4146 170.405 36.227 170.405 39.6328H174.405ZM170.894 30.3866C169.643 29.368 167.977 28.7179 166.074 28.3117C164.153 27.9015 161.851 27.7109 159.202 27.7109V31.7109C161.682 31.7109 163.684 31.8915 165.239 32.2235C166.813 32.5594 167.796 33.0226 168.368 33.4884L170.894 30.3866ZM159.202 27.7109H153.928V31.7109H159.202V27.7109ZM211.166 81H209.166V83H211.166V81ZM211.166 23.8125V21.8125H209.166V23.8125H211.166ZM217.962 23.8125H219.962V21.8125H217.962V23.8125ZM217.962 81V83H219.962V81H217.962ZM213.166 81V23.8125H209.166V81H213.166ZM211.166 25.8125H217.962V21.8125H211.166V25.8125ZM215.962 23.8125V81H219.962V23.8125H215.962ZM217.962 79H211.166V83H217.962V79ZM250.591 81H248.591V83H250.591V81ZM250.591 23.8125V21.8125H248.591V23.8125H250.591ZM257.387 23.8125H259.387V21.8125H257.387V23.8125ZM257.387 74.5156H255.387V76.5156H257.387V74.5156ZM278.989 74.5156H280.989V72.5156H278.989V74.5156ZM278.989 81V83H280.989V81H278.989ZM252.591 81V23.8125H248.591V81H252.591ZM250.591 25.8125H257.387V21.8125H250.591V25.8125ZM255.387 23.8125V74.5156H259.387V23.8125H255.387ZM257.387 76.5156H278.989V72.5156H257.387V76.5156ZM276.989 74.5156V81H280.989V74.5156H276.989ZM278.989 79H250.591V83H278.989V79ZM305.953 81H303.953V83H305.953V81ZM305.953 23.8125V21.8125H303.953V23.8125H305.953ZM312.75 23.8125H314.75V21.8125H312.75V23.8125ZM312.75 81V83H314.75V81H312.75ZM307.953 81V23.8125H303.953V81H307.953ZM305.953 25.8125H312.75V21.8125H305.953V25.8125ZM310.75 23.8125V81H314.75V23.8125H310.75ZM312.75 79H305.953V83H312.75V79ZM352.253 74.5938H350.253V76.5938H352.253V74.5938ZM371.198 73.6953L371.63 75.6481L371.639 75.6462L371.648 75.6441L371.198 73.6953ZM377.956 70.5312L379.23 72.0732L379.237 72.0677L377.956 70.5312ZM383.308 62.9922L385.166 63.7323L385.168 63.7269L383.308 62.9922ZM383.308 41.8203L381.446 42.5521L381.45 42.5618L381.454 42.5714L383.308 41.8203ZM377.956 34.2812L376.669 35.8122L376.674 35.8163L377.956 34.2812ZM371.081 31.0781L370.622 33.0247L370.633 33.0272L370.644 33.0296L371.081 31.0781ZM352.253 30.1016V28.1016H350.253V30.1016H352.253ZM345.378 81H343.378V83H345.378V81ZM345.378 23.8125V21.8125H343.378V23.8125H345.378ZM373.503 25.0625L373.014 27.0019L373.023 27.0041L373.032 27.0063L373.503 25.0625ZM382.253 29.1641L381.032 30.7481L381.033 30.7488L382.253 29.1641ZM389.714 38.8516L387.877 39.6423L389.714 38.8516ZM389.714 66L387.877 65.2092L387.874 65.2151L389.714 66ZM382.253 75.6484L381.039 74.059L381.032 74.0644L382.253 75.6484ZM373.698 79.7891L374.191 81.7275L374.202 81.7246L373.698 79.7891ZM352.253 76.5938H356.589V72.5938H352.253V76.5938ZM356.589 76.5938C363.611 76.5938 368.683 76.2999 371.63 75.6481L370.767 71.7425C368.297 72.2886 363.63 72.5938 356.589 72.5938V76.5938ZM371.648 75.6441C374.601 74.9626 377.152 73.7899 379.23 72.0732L376.682 68.9893C375.167 70.2414 373.212 71.178 370.749 71.7465L371.648 75.6441ZM379.237 72.0677C381.857 69.8837 383.829 67.0879 385.166 63.7323L381.45 62.2521C380.338 65.0423 378.743 67.2726 376.676 68.9948L379.237 72.0677ZM385.168 63.7269C386.5 60.3531 387.144 56.555 387.144 52.3672H383.144C383.144 56.1482 382.563 59.4334 381.448 62.2575L385.168 63.7269ZM387.144 52.3672C387.144 48.1569 386.502 44.3768 385.161 41.0693L381.454 42.5714C382.562 45.3055 383.144 48.5567 383.144 52.3672H387.144ZM385.169 41.0885C383.856 37.749 381.881 34.9533 379.238 32.7462L376.674 35.8163C378.771 37.5675 380.364 39.7979 381.446 42.5521L385.169 41.0885ZM379.243 32.7503C377.153 30.9937 374.551 29.8067 371.519 29.1266L370.644 33.0296C373.184 33.5995 375.165 34.548 376.669 35.8122L379.243 32.7503ZM371.54 29.1315C368.529 28.4213 363.487 28.1016 356.589 28.1016V32.1016C363.493 32.1016 368.112 32.4328 370.622 33.0247L371.54 29.1315ZM356.589 28.1016H352.253V32.1016H356.589V28.1016ZM350.253 30.1016V74.5938H354.253V30.1016H350.253ZM347.378 81V23.8125H343.378V81H347.378ZM345.378 25.8125H356.355V21.8125H345.378V25.8125ZM356.355 25.8125C364.479 25.8125 369.972 26.2353 373.014 27.0019L373.992 23.1231C370.42 22.2231 364.481 21.8125 356.355 21.8125V25.8125ZM373.032 27.0063C376.117 27.7534 378.773 29.0066 381.032 30.7481L383.474 27.58C380.733 25.4674 377.556 23.9862 373.974 23.1187L373.032 27.0063ZM381.033 30.7488C384.035 33.0599 386.314 36.0119 387.877 39.6423L391.551 38.0608C389.728 33.8266 387.034 30.3203 383.473 27.5793L381.033 30.7488ZM387.877 39.6423C389.443 43.2805 390.253 47.5341 390.253 52.4453H394.253C394.253 47.0961 393.37 42.2872 391.551 38.0608L387.877 39.6423ZM390.253 52.4453C390.253 57.3289 389.444 61.5699 387.877 65.2092L391.551 66.7908C393.37 62.5655 394.253 57.7701 394.253 52.4453H390.253ZM387.874 65.2151C386.34 68.8105 384.066 71.7471 381.039 74.059L383.467 77.2379C387.055 74.4977 389.754 71.002 391.554 66.7849L387.874 65.2151ZM381.032 74.0644C378.755 75.8193 376.15 77.0845 373.195 77.8535L374.202 81.7246C377.653 80.8269 380.751 79.3317 383.474 77.2325L381.032 74.0644ZM373.206 77.8507C370.283 78.5934 365.531 79 358.816 79V83C365.59 83 370.76 82.5993 374.191 81.7275L373.206 77.8507ZM358.816 79H356.355V83H358.816V79ZM356.355 79H345.378V83H356.355V79ZM438.905 36.5859L440.741 35.7923L438.905 31.5455L437.069 35.7923L438.905 36.5859ZM429.803 57.6406L427.967 56.847L426.76 59.6406H429.803V57.6406ZM448.006 57.6406V59.6406H451.05L449.842 56.847L448.006 57.6406ZM438.905 21.5469L440.737 20.7451L438.902 16.5516L437.072 20.7471L438.905 21.5469ZM464.92 81V83H467.979L466.753 80.1982L464.92 81ZM457.538 81L455.696 81.7794L456.212 83H457.538V81ZM450.116 63.4609L451.958 62.6815L451.441 61.4609H450.116V63.4609ZM427.772 63.4609V61.4609H426.447L425.93 62.6815L427.772 63.4609ZM420.35 81V83H421.675L422.192 81.7794L420.35 81ZM412.967 81L411.134 80.2003L409.913 83H412.967V81ZM437.069 35.7923L427.967 56.847L431.639 58.4342L440.741 37.3795L437.069 35.7923ZM429.803 59.6406H448.006V55.6406H429.803V59.6406ZM449.842 56.847L440.741 35.7923L437.069 37.3795L446.17 58.4342L449.842 56.847ZM437.072 22.3486L463.088 81.8018L466.753 80.1982L440.737 20.7451L437.072 22.3486ZM464.92 79H457.538V83H464.92V79ZM459.379 80.2206L451.958 62.6815L448.274 64.2404L455.696 81.7794L459.379 80.2206ZM450.116 61.4609H427.772V65.4609H450.116V61.4609ZM425.93 62.6815L418.508 80.2206L422.192 81.7794L429.614 64.2404L425.93 62.6815ZM420.35 79H412.967V83H420.35V79ZM414.8 81.7997L440.738 22.3466L437.072 20.7471L411.134 80.2003L414.8 81.7997ZM496.494 74.5938H494.494V76.5938H496.494V74.5938ZM515.439 73.6953L515.871 75.6481L515.88 75.6462L515.889 75.6441L515.439 73.6953ZM522.197 70.5312L523.471 72.0732L523.477 72.0677L522.197 70.5312ZM527.548 62.9922L529.406 63.7323L529.409 63.7269L527.548 62.9922ZM527.548 41.8203L525.687 42.5521L525.691 42.5618L525.695 42.5714L527.548 41.8203ZM522.197 34.2812L520.91 35.8122L520.915 35.8163L522.197 34.2812ZM515.322 31.0781L514.863 33.0247L514.873 33.0272L514.884 33.0296L515.322 31.0781ZM496.494 30.1016V28.1016H494.494V30.1016H496.494ZM489.619 81H487.619V83H489.619V81ZM489.619 23.8125V21.8125H487.619V23.8125H489.619ZM517.744 25.0625L517.255 27.0019L517.264 27.0041L517.273 27.0063L517.744 25.0625ZM526.494 29.1641L525.273 30.7481L525.274 30.7488L526.494 29.1641ZM533.955 38.8516L532.118 39.6423L533.955 38.8516ZM533.955 66L532.118 65.2092L532.115 65.2151L533.955 66ZM526.494 75.6484L525.28 74.059L525.273 74.0644L526.494 75.6484ZM517.939 79.7891L518.432 81.7275L518.443 81.7246L517.939 79.7891ZM496.494 76.5938H500.83V72.5938H496.494V76.5938ZM500.83 76.5938C507.851 76.5938 512.924 76.2999 515.871 75.6481L515.007 71.7425C512.538 72.2886 507.87 72.5938 500.83 72.5938V76.5938ZM515.889 75.6441C518.842 74.9626 521.393 73.7899 523.471 72.0732L520.923 68.9893C519.407 70.2414 517.453 71.178 514.989 71.7465L515.889 75.6441ZM523.477 72.0677C526.098 69.8837 528.07 67.0879 529.406 63.7323L525.69 62.2521C524.579 65.0423 522.983 67.2726 520.917 68.9948L523.477 72.0677ZM529.409 63.7269C530.741 60.3531 531.384 56.555 531.384 52.3672H527.384C527.384 56.1482 526.804 59.4334 525.688 62.2575L529.409 63.7269ZM531.384 52.3672C531.384 48.1569 530.742 44.3768 529.402 41.0693L525.695 42.5714C526.803 45.3055 527.384 48.5567 527.384 52.3672H531.384ZM529.41 41.0885C528.097 37.749 526.122 34.9533 523.479 32.7462L520.915 35.8163C523.012 37.5675 524.604 39.7979 525.687 42.5521L529.41 41.0885ZM523.484 32.7503C521.394 30.9937 518.792 29.8067 515.76 29.1266L514.884 33.0296C517.425 33.5995 519.406 34.548 520.91 35.8122L523.484 32.7503ZM515.781 29.1315C512.77 28.4213 507.728 28.1016 500.83 28.1016V32.1016C507.734 32.1016 512.353 32.4328 514.863 33.0247L515.781 29.1315ZM500.83 28.1016H496.494V32.1016H500.83V28.1016ZM494.494 30.1016V74.5938H498.494V30.1016H494.494ZM491.619 81V23.8125H487.619V81H491.619ZM489.619 25.8125H500.595V21.8125H489.619V25.8125ZM500.595 25.8125C508.719 25.8125 514.213 26.2353 517.255 27.0019L518.232 23.1231C514.66 22.2231 508.721 21.8125 500.595 21.8125V25.8125ZM517.273 27.0063C520.358 27.7534 523.013 29.0066 525.273 30.7481L527.715 27.58C524.974 25.4674 521.797 23.9862 518.215 23.1187L517.273 27.0063ZM525.274 30.7488C528.276 33.0599 530.555 36.0119 532.118 39.6423L535.792 38.0608C533.969 33.8266 531.274 30.3203 527.714 27.5793L525.274 30.7488ZM532.118 39.6423C533.684 43.2805 534.494 47.5341 534.494 52.4453H538.494C538.494 47.0961 537.611 42.2872 535.792 38.0608L532.118 39.6423ZM534.494 52.4453C534.494 57.3289 533.684 61.5699 532.118 65.2092L535.792 66.7908C537.611 62.5655 538.494 57.7701 538.494 52.4453H534.494ZM532.115 65.2151C530.581 68.8105 528.307 71.7471 525.28 74.059L527.708 77.2379C531.295 74.4977 533.995 71.002 535.794 66.7849L532.115 65.2151ZM525.273 74.0644C522.996 75.8193 520.391 77.0845 517.435 77.8535L518.443 81.7246C521.893 80.8269 524.991 79.3317 527.715 77.2325L525.273 74.0644ZM517.447 77.8507C514.524 78.5934 509.771 79 503.056 79V83C509.831 83 515 82.5993 518.432 81.7275L517.447 77.8507ZM503.056 79H500.595V83H503.056V79ZM500.595 79H489.619V83H500.595V79ZM566.466 81H564.466V83H566.466V81ZM566.466 23.8125V21.8125H564.466V23.8125H566.466ZM596.622 23.8125H598.622V21.8125H596.622V23.8125ZM596.622 30.0234V32.0234H598.622V30.0234H596.622ZM573.263 30.0234V28.0234H571.263V30.0234H573.263ZM573.263 46.4297H571.263V48.4297H573.263V46.4297ZM596.622 46.4297H598.622V44.4297H596.622V46.4297ZM596.622 52.7578V54.7578H598.622V52.7578H596.622ZM573.263 52.7578V50.7578H571.263V52.7578H573.263ZM573.263 74.6719H571.263V76.6719H573.263V74.6719ZM596.622 74.6719H598.622V72.6719H596.622V74.6719ZM596.622 81V83H598.622V81H596.622ZM568.466 81V23.8125H564.466V81H568.466ZM566.466 25.8125H596.622V21.8125H566.466V25.8125ZM594.622 23.8125V30.0234H598.622V23.8125H594.622ZM596.622 28.0234H573.263V32.0234H596.622V28.0234ZM571.263 30.0234V46.4297H575.263V30.0234H571.263ZM573.263 48.4297H596.622V44.4297H573.263V48.4297ZM594.622 46.4297V52.7578H598.622V46.4297H594.622ZM596.622 50.7578H573.263V54.7578H596.622V50.7578ZM571.263 52.7578V74.6719H575.263V52.7578H571.263ZM573.263 76.6719H596.622V72.6719H573.263V76.6719ZM594.622 74.6719V81H598.622V74.6719H594.622ZM596.622 79H566.466V83H596.622V79ZM647.805 49.2422L646.999 51.0727L647.009 51.0773L647.02 51.0818L647.805 49.2422ZM656.203 55.5703L654.575 56.7313L654.582 56.7419L656.203 55.5703ZM654.016 77.6406L655.401 79.0827L655.402 79.0825L654.016 77.6406ZM629.406 79.0078L628.195 80.5996L628.204 80.6062L629.406 79.0078ZM623.234 69.1641L622.349 67.3707L620.901 68.0856L621.295 69.6519L623.234 69.1641ZM629.406 66.1172L631.351 65.6493L630.765 63.2158L628.521 64.3238L629.406 66.1172ZM633.508 74.0078L632.134 75.4613L632.144 75.4709L632.155 75.4805L633.508 74.0078ZM649.016 73.7344L650.374 75.2019L650.384 75.1929L649.016 73.7344ZM649.953 59.3984L648.366 60.6158L648.376 60.6279L648.385 60.6398L649.953 59.3984ZM643.312 54.5938L644.116 52.7622L644.107 52.7582L644.098 52.7544L643.312 54.5938ZM636.359 51.625L637.145 49.7856L637.138 49.7826L637.13 49.7796L636.359 51.625ZM627.844 45.4922L626.236 46.6815L626.244 46.6922L627.844 45.4922ZM650.07 24.6328L649.063 26.3604L649.07 26.3649L650.07 24.6328ZM655.969 31.0781L657.046 32.7635L658.557 31.7977L657.761 30.1903L655.969 31.0781ZM650.344 34.6719L648.611 35.6707L649.657 37.4843L651.421 36.3573L650.344 34.6719ZM646.047 29.75L644.913 31.3973L644.922 31.4037L644.931 31.4099L646.047 29.75ZM634.367 30.4531L632.988 29.0048L632.982 29.0104L632.976 29.0159L634.367 30.4531ZM639.641 45.6484L640.446 43.8179L640.439 43.8149L639.641 45.6484ZM647.02 51.0818C650.491 52.5623 652.961 54.4679 654.575 56.7313L657.832 54.4094C655.695 51.4124 652.567 49.0991 648.589 47.4026L647.02 51.0818ZM654.582 56.7419C656.21 58.9947 657.055 61.6858 657.055 64.9062H661.055C661.055 60.9392 659.998 57.4064 657.824 54.3987L654.582 56.7419ZM657.055 64.9062C657.055 69.6995 655.544 73.3969 652.63 76.1987L655.402 79.0825C659.206 75.426 661.055 70.6338 661.055 64.9062H657.055ZM652.63 76.1985C649.74 78.9759 645.845 80.4453 640.734 80.4453V84.4453C646.665 84.4453 651.625 82.7116 655.401 79.0827L652.63 76.1985ZM640.734 80.4453C636.581 80.4453 633.249 79.3954 630.608 77.4095L628.204 80.6062C631.657 83.2036 635.877 84.4453 640.734 84.4453V80.4453ZM630.617 77.416C627.982 75.4117 626.148 72.5474 625.174 68.6762L621.295 69.6519C622.456 74.2704 624.737 77.9685 628.195 80.5996L630.617 77.416ZM624.12 70.9574L630.292 67.9106L628.521 64.3238L622.349 67.3707L624.12 70.9574ZM627.462 66.585C628.354 70.2931 629.866 73.3179 632.134 75.4613L634.882 72.5543C633.347 71.104 632.125 68.8683 631.351 65.6493L627.462 66.585ZM632.155 75.4805C634.49 77.627 637.399 78.6641 640.734 78.6641V74.6641C638.288 74.6641 636.379 73.9303 634.861 72.5352L632.155 75.4805ZM640.734 78.6641C644.55 78.6641 647.828 77.5596 650.374 75.2019L647.657 72.2669C645.984 73.8154 643.742 74.6641 640.734 74.6641V78.6641ZM650.384 75.1929C652.935 72.7996 654.18 69.6877 654.18 66.0391H650.18C650.18 68.6925 649.315 70.7108 647.647 72.2759L650.384 75.1929ZM654.18 66.0391C654.18 63.0688 653.305 60.41 651.521 58.157L648.385 60.6398C649.57 62.1369 650.18 63.9052 650.18 66.0391H654.18ZM651.54 58.1811C649.817 55.9347 647.289 54.1539 644.116 52.7622L642.509 56.4253C645.274 57.6378 647.173 59.0601 648.366 60.6158L651.54 58.1811ZM644.098 52.7544L637.145 49.7856L635.574 53.4644L642.527 56.4331L644.098 52.7544ZM637.13 49.7796C633.555 48.2859 631.047 46.4301 629.444 44.2922L626.244 46.6922C628.39 49.5543 631.559 51.787 635.588 53.4704L637.13 49.7796ZM629.452 44.3029C627.888 42.1888 627.07 39.6241 627.07 36.5078H623.07C623.07 40.3707 624.101 43.7956 626.236 46.6814L629.452 44.3029ZM627.07 36.5078C627.07 33.0138 628.338 30.2039 630.922 27.9316L628.281 24.9277C624.823 27.968 623.07 31.8768 623.07 36.5078H627.07ZM630.922 27.9316C633.519 25.6485 636.878 24.4453 641.164 24.4453V20.4453C636.076 20.4453 631.726 21.8984 628.281 24.9277L630.922 27.9316ZM641.164 24.4453C644.314 24.4453 646.921 25.1114 649.063 26.3604L651.078 22.9053C648.219 21.2376 644.889 20.4453 641.164 20.4453V24.4453ZM649.07 26.3649C651.225 27.609 652.93 29.449 654.177 31.966L657.761 30.1903C656.195 27.0302 653.967 24.5732 651.07 22.9007L649.07 26.3649ZM654.892 29.3927L649.267 32.9865L651.421 36.3573L657.046 32.7635L654.892 29.3927ZM652.076 33.673C650.697 31.2795 649.075 29.3753 647.163 28.0901L644.931 31.4099C646.196 32.2601 647.439 33.6372 648.611 35.6707L652.076 33.673ZM647.181 28.1027C645.245 26.7698 643.049 26.1094 640.656 26.1094V30.1094C642.273 30.1094 643.672 30.5427 644.913 31.3973L647.181 28.1027ZM640.656 26.1094C637.661 26.1094 635.048 27.0425 632.988 29.0048L635.746 31.9014C636.967 30.7388 638.547 30.1094 640.656 30.1094V26.1094ZM632.976 29.0159C630.94 30.9866 629.945 33.5129 629.945 36.4297H633.945C633.945 34.5027 634.565 33.0446 635.758 31.8903L632.976 29.0159ZM629.945 36.4297C629.945 38.9084 630.722 41.1285 632.29 42.9914L635.35 40.4149C634.419 39.309 633.945 38.0134 633.945 36.4297H629.945ZM632.29 42.9914C633.811 44.7969 636.054 46.2673 638.842 47.482L640.439 43.8149C637.967 42.7379 636.33 41.5781 635.35 40.4149L632.29 42.9914ZM638.835 47.4789L646.999 51.0727L648.61 47.4117L640.446 43.8179L638.835 47.4789ZM739.35 81H737.35V83H739.35V81ZM739.35 30.2969H741.35V28.2969H739.35V30.2969ZM723.178 30.2969H721.178V32.2969H723.178V30.2969ZM723.178 23.8125V21.8125H721.178V23.8125H723.178ZM762.319 23.8125H764.319V21.8125H762.319V23.8125ZM762.319 30.2969V32.2969H764.319V30.2969H762.319ZM746.225 30.2969V28.2969H744.225V30.2969H746.225ZM746.225 81V83H748.225V81H746.225ZM741.35 81V30.2969H737.35V81H741.35ZM739.35 28.2969H723.178V32.2969H739.35V28.2969ZM725.178 30.2969V23.8125H721.178V30.2969H725.178ZM723.178 25.8125H762.319V21.8125H723.178V25.8125ZM760.319 23.8125V30.2969H764.319V23.8125H760.319ZM762.319 28.2969H746.225V32.2969H762.319V28.2969ZM744.225 30.2969V81H748.225V30.2969H744.225ZM746.225 79H739.35V83H746.225V79ZM788.697 81H786.697V83H788.697V81ZM788.697 23.8125V21.8125H786.697V23.8125H788.697ZM818.853 23.8125H820.853V21.8125H818.853V23.8125ZM818.853 30.0234V32.0234H820.853V30.0234H818.853ZM795.494 30.0234V28.0234H793.494V30.0234H795.494ZM795.494 46.4297H793.494V48.4297H795.494V46.4297ZM818.853 46.4297H820.853V44.4297H818.853V46.4297ZM818.853 52.7578V54.7578H820.853V52.7578H818.853ZM795.494 52.7578V50.7578H793.494V52.7578H795.494ZM795.494 74.6719H793.494V76.6719H795.494V74.6719ZM818.853 74.6719H820.853V72.6719H818.853V74.6719ZM818.853 81V83H820.853V81H818.853ZM798.384 18.1094L796.659 17.0979L794.894 20.1094H798.384V18.1094ZM806.353 4.51562V2.51562H805.207L804.628 3.50419L806.353 4.51562ZM814.205 4.51562L815.752 5.78283L818.428 2.51562H814.205V4.51562ZM803.072 18.1094V20.1094H804.019L804.619 19.3766L803.072 18.1094ZM790.697 81V23.8125H786.697V81H790.697ZM788.697 25.8125H818.853V21.8125H788.697V25.8125ZM816.853 23.8125V30.0234H820.853V23.8125H816.853ZM818.853 28.0234H795.494V32.0234H818.853V28.0234ZM793.494 30.0234V46.4297H797.494V30.0234H793.494ZM795.494 48.4297H818.853V44.4297H795.494V48.4297ZM816.853 46.4297V52.7578H820.853V46.4297H816.853ZM818.853 50.7578H795.494V54.7578H818.853V50.7578ZM793.494 52.7578V74.6719H797.494V52.7578H793.494ZM795.494 76.6719H818.853V72.6719H795.494V76.6719ZM816.853 74.6719V81H820.853V74.6719H816.853ZM818.853 79H788.697V83H818.853V79ZM800.11 19.1208L808.078 5.52706L804.628 3.50419L796.659 17.0979L800.11 19.1208ZM806.353 6.51562H814.205V2.51562H806.353V6.51562ZM812.657 3.24842L801.525 16.8422L804.619 19.3766L815.752 5.78283L812.657 3.24842ZM803.072 16.1094H798.384V20.1094H803.072V16.1094ZM895.622 37.4844L894.151 38.8393L897.622 42.6079V37.4844H895.622ZM886.872 30.9219L886.033 32.7374L886.045 32.7431L886.872 30.9219ZM867.731 30.6094L866.951 28.7677L866.945 28.7702L867.731 30.6094ZM860.27 35.7266L861.709 37.1158L861.71 37.1148L860.27 35.7266ZM855.348 43.3438L857.21 44.0745L857.212 44.0686L855.348 43.3438ZM854.684 59.9453L852.764 60.5036L854.684 59.9453ZM857.614 66.1172L855.971 67.258L855.979 67.2685L857.614 66.1172ZM866.052 73.6562L865.113 75.4225L865.121 75.4268L865.13 75.4311L866.052 73.6562ZM895.622 67.25H897.622V61.8612L894.106 65.9452L895.622 67.25ZM895.622 76.2734L896.796 77.8928L897.622 77.294V76.2734H895.622ZM886.442 80.9609L887.052 82.8658L887.061 82.8628L886.442 80.9609ZM867.497 81.1562L868.103 79.2504L868.095 79.2479L868.087 79.2454L867.497 81.1562ZM859.45 77.25L858.31 78.8933L858.317 78.8981L859.45 77.25ZM849.88 66.5859L848.104 67.5066L848.109 67.5152L849.88 66.5859ZM848.786 40.6875L846.935 39.9287L846.933 39.9355L848.786 40.6875ZM855.544 30.8438L854.155 29.404L854.148 29.4111L855.544 30.8438ZM865.231 24.5547L865.957 26.4182L865.969 26.4135L865.231 24.5547ZM886.442 23.9688L885.819 25.8693L885.827 25.8717L885.834 25.874L886.442 23.9688ZM895.622 28.6172H897.622V27.5744L896.767 26.9774L895.622 28.6172ZM897.093 36.1294C894.21 32.9997 891.082 30.6362 887.698 29.1006L886.045 32.7431C888.859 34.0201 891.565 36.0316 894.151 38.8393L897.093 36.1294ZM887.711 29.1064C884.324 27.541 880.609 26.7734 876.598 26.7734V30.7734C880.088 30.7734 883.222 31.4382 886.033 32.7373L887.711 29.1064ZM876.598 26.7734C873.299 26.7734 870.079 27.4434 866.951 28.7677L868.511 32.4511C871.165 31.3274 873.856 30.7734 876.598 30.7734V26.7734ZM866.945 28.7702C863.841 30.0965 861.13 31.9534 858.831 34.3383L861.71 37.1148C863.629 35.1247 865.892 33.5701 868.517 32.4485L866.945 28.7702ZM858.832 34.3374C856.468 36.7855 854.679 39.5481 853.484 42.6189L857.212 44.0686C858.206 41.5144 859.698 39.1989 861.709 37.1158L858.832 34.3374ZM853.487 42.613C852.29 45.6607 851.708 48.9986 851.708 52.6016H855.708C855.708 49.4337 856.219 46.5997 857.21 44.0745L853.487 42.613ZM851.708 52.6016C851.708 55.421 852.053 58.0595 852.764 60.5036L856.605 59.387C856.013 57.352 855.708 55.0946 855.708 52.6016H851.708ZM852.764 60.5036C853.474 62.9465 854.543 65.2013 855.971 67.258L859.257 64.9764C858.081 63.2831 857.197 61.4233 856.605 59.387L852.764 60.5036ZM855.979 67.2685C858.441 70.7661 861.487 73.4962 865.113 75.4225L866.99 71.89C863.949 70.2746 861.37 67.9787 859.249 64.9659L855.979 67.2685ZM865.13 75.4311C868.781 77.3276 872.718 78.2734 876.911 78.2734V74.2734C873.343 74.2734 870.041 73.4745 866.973 71.8814L865.13 75.4311ZM876.911 78.2734C880.843 78.2734 884.527 77.4567 887.938 75.8085L886.197 72.2071C883.357 73.5797 880.271 74.2734 876.911 74.2734V78.2734ZM887.938 75.8085C891.341 74.1634 894.405 71.7287 897.138 68.5548L894.106 65.9452C891.682 68.7609 889.043 70.8314 886.197 72.2071L887.938 75.8085ZM893.622 67.25V76.2734H897.622V67.25H893.622ZM894.448 74.654C891.776 76.5908 888.903 78.057 885.823 79.0591L887.061 82.8628C890.544 81.7294 893.791 80.0707 896.796 77.8928L894.448 74.654ZM885.833 79.0561C882.779 80.0334 879.612 80.5234 876.325 80.5234V84.5234C880.017 84.5234 883.595 83.9718 887.052 82.8658L885.833 79.0561ZM876.325 80.5234C873.509 80.5234 870.771 80.0992 868.103 79.2504L866.89 83.0621C869.952 84.0363 873.099 84.5234 876.325 84.5234V80.5234ZM868.087 79.2454C865.418 78.4204 862.919 77.2076 860.583 75.6019L858.317 78.8981C860.981 80.7299 863.846 82.1213 866.906 83.0671L868.087 79.2454ZM860.59 75.6067C856.671 72.8876 853.705 69.5718 851.651 65.6567L848.109 67.5152C850.482 72.0376 853.896 75.8311 858.31 78.8933L860.59 75.6067ZM851.655 65.6653C849.624 61.7489 848.598 57.4321 848.598 52.6797H844.598C844.598 58.0314 845.76 62.9855 848.104 67.5066L851.655 65.6653ZM848.598 52.6797C848.598 48.5019 849.29 44.7644 850.639 41.4395L846.933 39.9355C845.365 43.7981 844.598 48.0554 844.598 52.6797H848.598ZM850.636 41.4463C852.009 38.0992 854.099 35.0431 856.939 32.2764L854.148 29.4111C850.947 32.5299 848.532 36.0363 846.935 39.9287L850.636 41.4463ZM856.932 32.2834C859.671 29.6423 862.678 27.6961 865.957 26.4182L864.505 22.6912C860.701 24.1737 857.25 26.4202 854.155 29.4041L856.932 32.2834ZM865.969 26.4135C869.254 25.1095 872.867 24.4453 876.833 24.4453V20.4453C872.413 20.4453 868.292 21.1874 864.493 22.6959L865.969 26.4135ZM876.833 24.4453C879.932 24.4453 882.924 24.9205 885.819 25.8693L887.065 22.0682C883.762 20.9858 880.349 20.4453 876.833 20.4453V24.4453ZM885.834 25.874C888.718 26.795 891.599 28.2475 894.477 30.257L896.767 26.9774C893.603 24.7681 890.364 23.1216 887.051 22.0635L885.834 25.874ZM893.622 28.6172V37.4844H897.622V28.6172H893.622ZM926.062 81H924.062V83H926.062V81ZM926.062 21.5469L927.538 20.1965L924.062 16.4V21.5469H926.062ZM967.898 67.25L966.423 68.6004L969.898 72.3969V67.25H967.898ZM967.898 23.8125V21.8125H965.898V23.8125H967.898ZM974.383 23.8125H976.383V21.8125H974.383V23.8125ZM974.383 83.2266L972.915 84.5852L976.383 88.3313V83.2266H974.383ZM932.547 38.0312L934.015 36.6726L930.547 32.9265V38.0312H932.547ZM932.547 81V83H934.547V81H932.547ZM928.062 81V21.5469H924.062V81H928.062ZM924.587 22.8973L966.423 68.6004L969.374 65.8996L927.538 20.1965L924.587 22.8973ZM969.898 67.25V23.8125H965.898V67.25H969.898ZM967.898 25.8125H974.383V21.8125H967.898V25.8125ZM972.383 23.8125V83.2266H976.383V23.8125H972.383ZM975.851 81.8679L934.015 36.6726L931.079 39.3899L972.915 84.5852L975.851 81.8679ZM930.547 38.0312V81H934.547V38.0312H930.547ZM932.547 79H926.062V83H932.547V79ZM1006.97 81H1004.97V83H1006.97V81ZM1006.97 23.8125V21.8125H1004.97V23.8125H1006.97ZM1013.77 23.8125H1015.77V21.8125H1013.77V23.8125ZM1013.77 81V83H1015.77V81H1013.77ZM1008.97 81V23.8125H1004.97V81H1008.97ZM1006.97 25.8125H1013.77V21.8125H1006.97V25.8125ZM1011.77 23.8125V81H1015.77V23.8125H1011.77ZM1013.77 79H1006.97V83H1013.77V79ZM1092.8 37.4844L1091.33 38.8393L1094.8 42.6079V37.4844H1092.8ZM1084.05 30.9219L1083.21 32.7374L1083.23 32.7431L1084.05 30.9219ZM1064.91 30.6094L1064.13 28.7677L1064.13 28.7702L1064.91 30.6094ZM1057.45 35.7266L1058.89 37.1158L1058.89 37.1148L1057.45 35.7266ZM1052.53 43.3438L1054.39 44.0745L1054.39 44.0686L1052.53 43.3438ZM1051.87 59.9453L1049.95 60.5036L1051.87 59.9453ZM1054.8 66.1172L1053.15 67.258L1053.16 67.2685L1054.8 66.1172ZM1063.23 73.6562L1062.29 75.4225L1062.3 75.4268L1062.31 75.4311L1063.23 73.6562ZM1092.8 67.25H1094.8V61.8612L1091.29 65.9452L1092.8 67.25ZM1092.8 76.2734L1093.98 77.8928L1094.8 77.294V76.2734H1092.8ZM1083.62 80.9609L1084.23 82.8658L1084.24 82.8628L1083.62 80.9609ZM1064.68 81.1562L1065.28 79.2504L1065.28 79.2479L1065.27 79.2454L1064.68 81.1562ZM1056.63 77.25L1055.49 78.8933L1055.5 78.8981L1056.63 77.25ZM1047.06 66.5859L1045.29 67.5066L1045.29 67.5152L1047.06 66.5859ZM1045.97 40.6875L1044.12 39.9287L1044.11 39.9355L1045.97 40.6875ZM1052.72 30.8438L1051.34 29.404L1051.33 29.4111L1052.72 30.8438ZM1062.41 24.5547L1063.14 26.4182L1063.15 26.4135L1062.41 24.5547ZM1083.62 23.9688L1083 25.8693L1083.01 25.8717L1083.02 25.874L1083.62 23.9688ZM1092.8 28.6172H1094.8V27.5744L1093.95 26.9774L1092.8 28.6172ZM1094.27 36.1294C1091.39 32.9997 1088.26 30.6362 1084.88 29.1006L1083.23 32.7431C1086.04 34.0201 1088.75 36.0316 1091.33 38.8393L1094.27 36.1294ZM1084.89 29.1064C1081.51 27.541 1077.79 26.7734 1073.78 26.7734V30.7734C1077.27 30.7734 1080.4 31.4382 1083.21 32.7373L1084.89 29.1064ZM1073.78 26.7734C1070.48 26.7734 1067.26 27.4434 1064.13 28.7677L1065.69 32.4511C1068.35 31.3274 1071.04 30.7734 1073.78 30.7734V26.7734ZM1064.13 28.7702C1061.02 30.0965 1058.31 31.9534 1056.01 34.3383L1058.89 37.1148C1060.81 35.1247 1063.07 33.5701 1065.7 32.4485L1064.13 28.7702ZM1056.01 34.3374C1053.65 36.7855 1051.86 39.5481 1050.67 42.6189L1054.39 44.0686C1055.39 41.5144 1056.88 39.1989 1058.89 37.1158L1056.01 34.3374ZM1050.67 42.613C1049.47 45.6607 1048.89 48.9986 1048.89 52.6016H1052.89C1052.89 49.4337 1053.4 46.5997 1054.39 44.0745L1050.67 42.613ZM1048.89 52.6016C1048.89 55.421 1049.23 58.0595 1049.95 60.5036L1053.79 59.387C1053.19 57.352 1052.89 55.0946 1052.89 52.6016H1048.89ZM1049.95 60.5036C1050.66 62.9465 1051.72 65.2013 1053.15 67.258L1056.44 64.9764C1055.26 63.2831 1054.38 61.4233 1053.79 59.387L1049.95 60.5036ZM1053.16 67.2685C1055.62 70.7661 1058.67 73.4962 1062.29 75.4225L1064.17 71.89C1061.13 70.2746 1058.55 67.9787 1056.43 64.9659L1053.16 67.2685ZM1062.31 75.4311C1065.96 77.3276 1069.9 78.2734 1074.09 78.2734V74.2734C1070.52 74.2734 1067.22 73.4745 1064.15 71.8814L1062.31 75.4311ZM1074.09 78.2734C1078.02 78.2734 1081.71 77.4567 1085.12 75.8085L1083.38 72.2071C1080.54 73.5797 1077.45 74.2734 1074.09 74.2734V78.2734ZM1085.12 75.8085C1088.52 74.1634 1091.59 71.7287 1094.32 68.5548L1091.29 65.9452C1088.86 68.7609 1086.22 70.8314 1083.38 72.2071L1085.12 75.8085ZM1090.8 67.25V76.2734H1094.8V67.25H1090.8ZM1091.63 74.654C1088.96 76.5908 1086.08 78.057 1083 79.0591L1084.24 82.8628C1087.73 81.7294 1090.97 80.0707 1093.98 77.8928L1091.63 74.654ZM1083.01 79.0561C1079.96 80.0334 1076.79 80.5234 1073.51 80.5234V84.5234C1077.2 84.5234 1080.78 83.9718 1084.23 82.8658L1083.01 79.0561ZM1073.51 80.5234C1070.69 80.5234 1067.95 80.0992 1065.28 79.2504L1064.07 83.0621C1067.13 84.0363 1070.28 84.5234 1073.51 84.5234V80.5234ZM1065.27 79.2454C1062.6 78.4204 1060.1 77.2076 1057.76 75.6019L1055.5 78.8981C1058.16 80.7299 1061.03 82.1213 1064.09 83.0671L1065.27 79.2454ZM1057.77 75.6067C1053.85 72.8876 1050.89 69.5718 1048.83 65.6567L1045.29 67.5152C1047.66 72.0376 1051.08 75.8311 1055.49 78.8933L1057.77 75.6067ZM1048.84 65.6653C1046.81 61.7489 1045.78 57.4321 1045.78 52.6797H1041.78C1041.78 58.0314 1042.94 62.9855 1045.29 67.5066L1048.84 65.6653ZM1045.78 52.6797C1045.78 48.5019 1046.47 44.7644 1047.82 41.4395L1044.11 39.9355C1042.55 43.7981 1041.78 48.0554 1041.78 52.6797H1045.78ZM1047.82 41.4463C1049.19 38.0992 1051.28 35.0431 1054.12 32.2764L1051.33 29.4111C1048.13 32.5299 1045.71 36.0363 1044.12 39.9287L1047.82 41.4463ZM1054.11 32.2834C1056.85 29.6423 1059.86 27.6961 1063.14 26.4182L1061.69 22.6912C1057.88 24.1737 1054.43 26.4202 1051.34 29.4041L1054.11 32.2834ZM1063.15 26.4135C1066.43 25.1095 1070.05 24.4453 1074.01 24.4453V20.4453C1069.59 20.4453 1065.47 21.1874 1061.67 22.6959L1063.15 26.4135ZM1074.01 24.4453C1077.11 24.4453 1080.11 24.9205 1083 25.8693L1084.25 22.0682C1080.94 20.9858 1077.53 20.4453 1074.01 20.4453V24.4453ZM1083.02 25.874C1085.9 26.795 1088.78 28.2475 1091.66 30.257L1093.95 26.9774C1090.78 24.7681 1087.55 23.1216 1084.23 22.0635L1083.02 25.874ZM1090.8 28.6172V37.4844H1094.8V28.6172H1090.8ZM1141.33 36.5859L1143.17 35.7923L1141.33 31.5455L1139.49 35.7923L1141.33 36.5859ZM1132.23 57.6406L1130.39 56.847L1129.18 59.6406H1132.23V57.6406ZM1150.43 57.6406V59.6406H1153.47L1152.27 56.847L1150.43 57.6406ZM1141.33 21.5469L1143.16 20.7451L1141.33 16.5516L1139.5 20.7471L1141.33 21.5469ZM1167.35 81V83H1170.4L1169.18 80.1982L1167.35 81ZM1159.96 81L1158.12 81.7794L1158.64 83H1159.96V81ZM1152.54 63.4609L1154.38 62.6815L1153.87 61.4609H1152.54V63.4609ZM1130.2 63.4609V61.4609H1128.87L1128.36 62.6815L1130.2 63.4609ZM1122.78 81V83H1124.1L1124.62 81.7794L1122.78 81ZM1115.39 81L1113.56 80.2003L1112.34 83H1115.39V81ZM1139.49 35.7923L1130.39 56.847L1134.06 58.4342L1143.17 37.3795L1139.49 35.7923ZM1132.23 59.6406H1150.43V55.6406H1132.23V59.6406ZM1152.27 56.847L1143.17 35.7923L1139.49 37.3795L1148.6 58.4342L1152.27 56.847ZM1139.5 22.3486L1165.51 81.8018L1169.18 80.1982L1143.16 20.7451L1139.5 22.3486ZM1167.35 79H1159.96V83H1167.35V79ZM1161.8 80.2206L1154.38 62.6815L1150.7 64.2404L1158.12 81.7794L1161.8 80.2206ZM1152.54 61.4609H1130.2V65.4609H1152.54V61.4609ZM1128.36 62.6815L1120.93 80.2206L1124.62 81.7794L1132.04 64.2404L1128.36 62.6815ZM1122.78 79H1115.39V83H1122.78V79ZM1117.23 81.7997L1143.16 22.3466L1139.5 20.7471L1113.56 80.2003L1117.23 81.7997ZM1212.86 49.2422L1212.06 51.0727L1212.07 51.0773L1212.08 51.0818L1212.86 49.2422ZM1221.26 55.5703L1219.63 56.7313L1219.64 56.7419L1221.26 55.5703ZM1219.07 77.6406L1220.46 79.0827L1220.46 79.0825L1219.07 77.6406ZM1194.47 79.0078L1193.25 80.5996L1193.26 80.6062L1194.47 79.0078ZM1188.29 69.1641L1187.41 67.3707L1185.96 68.0856L1186.35 69.6519L1188.29 69.1641ZM1194.47 66.1172L1196.41 65.6493L1195.82 63.2158L1193.58 64.3238L1194.47 66.1172ZM1198.57 74.0078L1197.19 75.4613L1197.2 75.4709L1197.21 75.4805L1198.57 74.0078ZM1214.07 73.7344L1215.43 75.2019L1215.44 75.1929L1214.07 73.7344ZM1215.01 59.3984L1213.43 60.6158L1213.43 60.6279L1213.44 60.6398L1215.01 59.3984ZM1208.37 54.5938L1209.18 52.7622L1209.17 52.7582L1209.16 52.7544L1208.37 54.5938ZM1201.42 51.625L1202.2 49.7856L1202.2 49.7826L1202.19 49.7796L1201.42 51.625ZM1192.9 45.4922L1191.3 46.6815L1191.3 46.6922L1192.9 45.4922ZM1215.13 24.6328L1214.12 26.3604L1214.13 26.3649L1215.13 24.6328ZM1221.03 31.0781L1222.1 32.7635L1223.62 31.7977L1222.82 30.1903L1221.03 31.0781ZM1215.4 34.6719L1213.67 35.6707L1214.72 37.4843L1216.48 36.3573L1215.4 34.6719ZM1211.11 29.75L1209.97 31.3973L1209.98 31.4037L1209.99 31.4099L1211.11 29.75ZM1199.43 30.4531L1198.05 29.0048L1198.04 29.0104L1198.04 29.0159L1199.43 30.4531ZM1204.7 45.6484L1205.51 43.8179L1205.5 43.8149L1204.7 45.6484ZM1212.08 51.0818C1215.55 52.5623 1218.02 54.4679 1219.63 56.7313L1222.89 54.4094C1220.75 51.4124 1217.63 49.0991 1213.65 47.4026L1212.08 51.0818ZM1219.64 56.7419C1221.27 58.9947 1222.11 61.6858 1222.11 64.9062H1226.11C1226.11 60.9392 1225.06 57.4064 1222.88 54.3987L1219.64 56.7419ZM1222.11 64.9062C1222.11 69.6995 1220.6 73.3969 1217.69 76.1987L1220.46 79.0825C1224.26 75.426 1226.11 70.6338 1226.11 64.9062H1222.11ZM1217.69 76.1985C1214.8 78.9759 1210.9 80.4453 1205.79 80.4453V84.4453C1211.72 84.4453 1216.68 82.7116 1220.46 79.0827L1217.69 76.1985ZM1205.79 80.4453C1201.64 80.4453 1198.31 79.3954 1195.67 77.4095L1193.26 80.6062C1196.72 83.2036 1200.94 84.4453 1205.79 84.4453V80.4453ZM1195.68 77.416C1193.04 75.4117 1191.21 72.5474 1190.23 68.6762L1186.35 69.6519C1187.52 74.2704 1189.8 77.9685 1193.25 80.5996L1195.68 77.416ZM1189.18 70.9574L1195.35 67.9106L1193.58 64.3238L1187.41 67.3707L1189.18 70.9574ZM1192.52 66.585C1193.41 70.2931 1194.93 73.3179 1197.19 75.4613L1199.94 72.5543C1198.41 71.104 1197.18 68.8683 1196.41 65.6493L1192.52 66.585ZM1197.21 75.4805C1199.55 77.627 1202.46 78.6641 1205.79 78.6641V74.6641C1203.35 74.6641 1201.44 73.9303 1199.92 72.5352L1197.21 75.4805ZM1205.79 78.6641C1209.61 78.6641 1212.89 77.5596 1215.43 75.2019L1212.72 72.2669C1211.04 73.8154 1208.8 74.6641 1205.79 74.6641V78.6641ZM1215.44 75.1929C1217.99 72.7996 1219.24 69.6877 1219.24 66.0391H1215.24C1215.24 68.6925 1214.37 70.7108 1212.71 72.2759L1215.44 75.1929ZM1219.24 66.0391C1219.24 63.0688 1218.36 60.41 1216.58 58.157L1213.44 60.6398C1214.63 62.1369 1215.24 63.9052 1215.24 66.0391H1219.24ZM1216.6 58.1811C1214.88 55.9347 1212.35 54.1539 1209.18 52.7622L1207.57 56.4253C1210.33 57.6378 1212.23 59.0601 1213.43 60.6158L1216.6 58.1811ZM1209.16 52.7544L1202.2 49.7856L1200.63 53.4644L1207.59 56.4331L1209.16 52.7544ZM1202.19 49.7796C1198.61 48.2859 1196.11 46.4301 1194.5 44.2922L1191.3 46.6922C1193.45 49.5543 1196.62 51.787 1200.65 53.4704L1202.19 49.7796ZM1194.51 44.3029C1192.95 42.1888 1192.13 39.6241 1192.13 36.5078H1188.13C1188.13 40.3707 1189.16 43.7956 1191.3 46.6814L1194.51 44.3029ZM1192.13 36.5078C1192.13 33.0138 1193.4 30.2039 1195.98 27.9316L1193.34 24.9277C1189.88 27.968 1188.13 31.8768 1188.13 36.5078H1192.13ZM1195.98 27.9316C1198.58 25.6485 1201.94 24.4453 1206.22 24.4453V20.4453C1201.13 20.4453 1196.79 21.8984 1193.34 24.9277L1195.98 27.9316ZM1206.22 24.4453C1209.37 24.4453 1211.98 25.1114 1214.12 26.3604L1216.14 22.9053C1213.28 21.2376 1209.95 20.4453 1206.22 20.4453V24.4453ZM1214.13 26.3649C1216.28 27.609 1217.99 29.449 1219.24 31.966L1222.82 30.1903C1221.25 27.0302 1219.03 24.5732 1216.13 22.9007L1214.13 26.3649ZM1219.95 29.3927L1214.33 32.9865L1216.48 36.3573L1222.1 32.7635L1219.95 29.3927ZM1217.14 33.673C1215.76 31.2795 1214.13 29.3753 1212.22 28.0901L1209.99 31.4099C1211.26 32.2601 1212.5 33.6372 1213.67 35.6707L1217.14 33.673ZM1212.24 28.1027C1210.3 26.7698 1208.11 26.1094 1205.72 26.1094V30.1094C1207.33 30.1094 1208.73 30.5427 1209.97 31.3973L1212.24 28.1027ZM1205.72 26.1094C1202.72 26.1094 1200.11 27.0425 1198.05 29.0048L1200.81 31.9014C1202.03 30.7388 1203.61 30.1094 1205.72 30.1094V26.1094ZM1198.04 29.0159C1196 30.9866 1195 33.5129 1195 36.4297H1199C1199 34.5027 1199.62 33.0446 1200.82 31.8903L1198.04 29.0159ZM1195 36.4297C1195 38.9084 1195.78 41.1285 1197.35 42.9914L1200.41 40.4149C1199.48 39.309 1199 38.0134 1199 36.4297H1195ZM1197.35 42.9914C1198.87 44.7969 1201.11 46.2673 1203.9 47.482L1205.5 43.8149C1203.03 42.7379 1201.39 41.5781 1200.41 40.4149L1197.35 42.9914ZM1203.89 47.4789L1212.06 51.0727L1213.67 47.4117L1205.51 43.8179L1203.89 47.4789Z" fill="#E6DBBF"/>
</g>
<defs>
<filter id="filter0_d_841_19" x="0.875" y="0.515625" width="1242.24" height="98.7109" filterUnits="userSpaceOnUse" color-interpolation-filters="sRGB">
<feFlood flood-opacity="0" result="BackgroundImageFix"/>
<feColorMatrix in="SourceAlpha" type="matrix" values="0 0 0 0 0 0 0 0 0 0 0 0 0 0 0 0 0 0 127 0" result="hardAlpha"/>
<feOffset dx="9" dy="6"/>
<feGaussianBlur stdDeviation="5"/>
<feComposite in2="hardAlpha" operator="out"/>
<feColorMatrix type="matrix" values="0 0 0 0 0 0 0 0 0 0 0 0 0 0 0 0 0 0 0.5 0"/>
<feBlend mode="normal" in2="BackgroundImageFix" result="effect1_dropShadow_841_19"/>
<feBlend mode="normal" in="SourceGraphic" in2="effect1_dropShadow_841_19" result="shape"/>
</filter>
</defs>
</svg>
