<svg width="1155" height="316" viewBox="0 0 1155 316" fill="none" xmlns="http://www.w3.org/2000/svg">
<path d="M41.5953 191.4L183.595 249.8L173.195 280.6L0.395314 207.4V175.4L173.195 102.2L183.595 133L41.5953 191.4ZM971.223 133L981.623 102.2L1154.42 175.4V207.4L981.623 280.6L971.223 249.8L1113.22 191.4L971.223 133Z" fill="#FF006E"/>
<path d="M389.377 147C384.843 143.267 378.31 139.667 369.777 136.2C361.243 132.733 351.91 131 341.777 131C331.11 131 321.91 133 314.177 137C306.71 140.733 300.577 146.067 295.777 153C290.977 159.667 287.51 167.667 285.377 177C283.243 186.333 282.177 196.333 282.177 207C282.177 231.267 288.177 250.067 300.177 263.4C312.177 276.467 328.177 283 348.177 283C358.31 283 366.71 282.6 373.377 281.8C380.31 280.733 385.643 279.667 389.377 278.6V147ZM389.377 6.99998L426.577 0.599991V305C418.043 307.4 407.11 309.8 393.777 312.2C380.443 314.6 365.11 315.8 347.777 315.8C331.777 315.8 317.377 313.267 304.577 308.2C291.777 303.133 280.843 295.933 271.777 286.6C262.71 277.267 255.643 265.933 250.577 252.6C245.777 239 243.377 223.8 243.377 207C243.377 191 245.377 176.333 249.377 163C253.643 149.667 259.777 138.2 267.777 128.6C275.777 119 285.51 111.533 296.977 106.2C308.71 100.867 322.043 98.2 336.977 98.2C348.977 98.2 359.51 99.8 368.577 103C377.91 106.2 384.843 109.267 389.377 112.2V6.99998ZM508.523 311V6.99998L545.723 0.599991V107C552.657 104.333 559.99 102.333 567.723 101C575.723 99.4 583.59 98.6 591.323 98.6C607.857 98.6 621.59 101 632.523 105.8C643.457 110.333 652.123 116.867 658.523 125.4C665.19 133.667 669.857 143.667 672.523 155.4C675.19 167.133 676.523 180.067 676.523 194.2V311H639.323V202.2C639.323 189.4 638.39 178.467 636.523 169.4C634.923 160.333 632.123 153 628.123 147.4C624.123 141.8 618.79 137.8 612.123 135.4C605.457 132.733 597.19 131.4 587.323 131.4C583.323 131.4 579.19 131.667 574.923 132.2C570.657 132.733 566.523 133.4 562.523 134.2C558.79 134.733 555.323 135.4 552.123 136.2C549.19 137 547.057 137.667 545.723 138.2V311H508.523ZM825.439 284.2C834.239 284.2 841.972 284.067 848.639 283.8C855.572 283.267 861.306 282.467 865.839 281.4V219.4C863.172 218.067 858.772 217 852.639 216.2C846.772 215.133 839.572 214.6 831.039 214.6C825.439 214.6 819.439 215 813.039 215.8C806.906 216.6 801.172 218.333 795.839 221C790.772 223.4 786.506 226.867 783.039 231.4C779.572 235.667 777.839 241.4 777.839 248.6C777.839 261.933 782.106 271.267 790.639 276.6C799.172 281.667 810.772 284.2 825.439 284.2ZM822.239 97.8C837.172 97.8 849.706 99.8 859.839 103.8C870.239 107.533 878.506 113 884.639 120.2C891.039 127.133 895.572 135.533 898.239 145.4C900.906 155 902.239 165.667 902.239 177.4V307.4C899.039 307.933 894.506 308.733 888.639 309.8C883.039 310.6 876.639 311.4 869.439 312.2C862.239 313 854.372 313.667 845.839 314.2C837.572 315 829.306 315.4 821.039 315.4C809.306 315.4 798.506 314.2 788.639 311.8C778.772 309.4 770.239 305.667 763.039 300.6C755.839 295.267 750.239 288.333 746.239 279.8C742.239 271.267 740.239 261 740.239 249C740.239 237.533 742.506 227.667 747.039 219.4C751.839 211.133 758.239 204.467 766.239 199.4C774.239 194.333 783.572 190.6 794.239 188.2C804.906 185.8 816.106 184.6 827.839 184.6C831.572 184.6 835.439 184.867 839.439 185.4C843.439 185.667 847.172 186.2 850.639 187C854.372 187.533 857.572 188.067 860.239 188.6C862.906 189.133 864.772 189.533 865.839 189.8V179.4C865.839 173.267 865.172 167.267 863.839 161.4C862.506 155.267 860.106 149.933 856.639 145.4C853.172 140.6 848.372 136.867 842.239 134.2C836.372 131.267 828.639 129.8 819.039 129.8C806.772 129.8 795.972 130.733 786.639 132.6C777.572 134.2 770.772 135.933 766.239 137.8L761.839 107C766.639 104.867 774.639 102.867 785.839 101C797.039 98.8666 809.172 97.8 822.239 97.8Z" fill="#50C8EE"/>
</svg>
