<svg width="1350" height="63" viewBox="0 0 1350 63" fill="none" xmlns="http://www.w3.org/2000/svg">
<path d="M0.875 60V2.8125H14.3125C18.1406 2.8125 20.9401 3.03385 22.7109 3.47656C24.5078 3.89323 26.0833 4.6224 27.4375 5.66406C29.1302 6.99219 30.4453 8.77604 31.3828 11.0156C32.3203 13.2292 32.7891 15.6901 32.7891 18.3984C32.7891 23.0859 31.474 26.6536 28.8438 29.1016C26.2396 31.5234 22.4115 32.7344 17.3594 32.7344H16.1484L37.9844 60H29.3516L8.49219 32.7344H7.51562V60H0.875ZM7.51562 8.55469V27.6953H12.7109C18.0234 27.6953 21.5781 27.0182 23.375 25.6641C25.1719 24.2839 26.0703 21.888 26.0703 18.4766C26.0703 14.8047 25.1458 12.2396 23.2969 10.7812C21.4479 9.29688 17.9193 8.55469 12.7109 8.55469H7.51562ZM54.0875 60V2.8125H84.2438V9.02344H60.8844V25.4297H84.2438V31.7578H60.8844V53.6719H84.2438V60H54.0875ZM127.027 28.2422C130.751 29.8307 133.55 31.9401 135.425 34.5703C137.326 37.2005 138.277 40.3125 138.277 43.9062C138.277 49.1667 136.597 53.4115 133.238 56.6406C129.904 59.8438 125.477 61.4453 119.956 61.4453C115.451 61.4453 111.675 60.2995 108.628 58.0078C105.581 55.6901 103.524 52.4089 102.456 48.1641L108.628 45.1172C109.461 48.5807 110.829 51.2109 112.73 53.0078C114.657 54.7786 117.066 55.6641 119.956 55.6641C123.368 55.6641 126.128 54.6875 128.238 52.7344C130.347 50.7552 131.402 48.1901 131.402 45.0391C131.402 42.487 130.659 40.2734 129.175 38.3984C127.717 36.4974 125.503 34.8958 122.534 33.5938L115.581 30.625C111.779 29.0365 108.941 26.9922 107.066 24.4922C105.217 21.9922 104.292 18.9974 104.292 15.5078C104.292 11.4453 105.803 8.08594 108.823 5.42969C111.844 2.77344 115.698 1.44531 120.386 1.44531C123.823 1.44531 126.792 2.17448 129.292 3.63281C131.818 5.09115 133.784 7.23958 135.191 10.0781L129.566 13.6719C128.29 11.4583 126.857 9.81771 125.269 8.75C123.68 7.65625 121.883 7.10938 119.878 7.10938C117.326 7.10938 115.23 7.89062 113.589 9.45312C111.974 11.0156 111.167 13.0078 111.167 15.4297C111.167 17.4609 111.792 19.2188 113.042 20.7031C114.292 22.1875 116.232 23.5026 118.863 24.6484L127.027 28.2422ZM157.544 2.8125H164.419V38.3984C164.419 44.1797 165.643 48.4245 168.091 51.1328C170.565 53.8411 174.432 55.1953 179.692 55.1953C184.953 55.1953 188.807 53.8411 191.255 51.1328C193.729 48.4245 194.966 44.1797 194.966 38.3984V2.8125H201.88V38.3984C201.88 46.1328 200.031 51.9271 196.333 55.7812C192.661 59.6094 187.114 61.5234 179.692 61.5234C172.296 61.5234 166.749 59.6094 163.052 55.7812C159.38 51.9271 157.544 46.1328 157.544 38.3984V2.8125ZM225.834 60V2.8125H232.631V53.5156H254.233V60H225.834ZM278.344 60V9.29688H262.172V2.8125H301.312V9.29688H285.219V60H278.344ZM331.517 15.5859L322.416 36.6406H340.619L331.517 15.5859ZM331.517 0.546875L357.533 60H350.15L342.728 42.4609H320.384L312.962 60H305.58L331.517 0.546875ZM380.706 53.5938H385.042C392.073 53.5938 396.943 53.2943 399.652 52.6953C402.36 52.0703 404.612 51.0156 406.409 49.5312C408.753 47.5781 410.537 45.0651 411.761 41.9922C412.985 38.8932 413.597 35.3516 413.597 31.3672C413.597 27.3568 412.985 23.8411 411.761 20.8203C410.563 17.7734 408.779 15.2604 406.409 13.2812C404.612 11.7708 402.321 10.7031 399.534 10.0781C396.774 9.42708 391.943 9.10156 385.042 9.10156H380.706V53.5938ZM373.831 60V2.8125H384.808C392.933 2.8125 398.649 3.22917 401.956 4.0625C405.29 4.86979 408.206 6.23698 410.706 8.16406C413.987 10.6901 416.474 13.9193 418.167 17.8516C419.86 21.7839 420.706 26.3151 420.706 31.4453C420.706 36.5495 419.86 41.0677 418.167 45C416.501 48.9062 414.014 52.1224 410.706 54.6484C408.206 56.5755 405.355 57.9557 402.152 58.7891C398.974 59.5964 394.014 60 387.269 60H384.808H373.831ZM470.208 55.1172C473.333 55.1172 476.302 54.5312 479.114 53.3594C481.953 52.1615 484.505 50.4297 486.77 48.1641C489.01 45.9245 490.716 43.3854 491.888 40.5469C493.059 37.7083 493.645 34.7005 493.645 31.5234C493.645 28.3203 493.046 25.2734 491.848 22.3828C490.677 19.4922 488.984 16.9401 486.77 14.7266C484.531 12.487 481.992 10.7812 479.153 9.60938C476.341 8.4375 473.359 7.85156 470.208 7.85156C467.031 7.85156 464.023 8.4375 461.184 9.60938C458.346 10.7812 455.833 12.487 453.645 14.7266C451.406 16.9922 449.7 19.5573 448.528 22.4219C447.356 25.2865 446.77 28.3203 446.77 31.5234C446.77 34.7005 447.343 37.6953 448.489 40.5078C449.661 43.3203 451.38 45.8724 453.645 48.1641C455.937 50.4557 458.476 52.1875 461.263 53.3594C464.075 54.5312 467.057 55.1172 470.208 55.1172ZM500.755 31.5234C500.755 35.612 499.999 39.4661 498.489 43.0859C496.979 46.7057 494.778 49.9219 491.888 52.7344C488.997 55.5469 485.664 57.7214 481.888 59.2578C478.138 60.7682 474.244 61.5234 470.208 61.5234C466.171 61.5234 462.278 60.7682 458.528 59.2578C454.804 57.7214 451.497 55.5469 448.606 52.7344C445.69 49.8958 443.463 46.6667 441.927 43.0469C440.416 39.4271 439.661 35.5859 439.661 31.5234C439.661 27.4349 440.416 23.5807 441.927 19.9609C443.463 16.3151 445.69 13.0729 448.606 10.2344C451.471 7.44792 454.778 5.29948 458.528 3.78906C462.278 2.27865 466.171 1.52344 470.208 1.52344C474.27 1.52344 478.177 2.27865 481.927 3.78906C485.703 5.29948 489.023 7.44792 491.888 10.2344C494.778 13.0469 496.979 16.276 498.489 19.9219C499.999 23.5417 500.755 27.4089 500.755 31.5234ZM543.108 28.2422C546.832 29.8307 549.631 31.9401 551.506 34.5703C553.407 37.2005 554.358 40.3125 554.358 43.9062C554.358 49.1667 552.678 53.4115 549.319 56.6406C545.985 59.8438 541.558 61.4453 536.037 61.4453C531.532 61.4453 527.756 60.2995 524.709 58.0078C521.662 55.6901 519.605 52.4089 518.537 48.1641L524.709 45.1172C525.543 48.5807 526.91 51.2109 528.811 53.0078C530.738 54.7786 533.147 55.6641 536.037 55.6641C539.449 55.6641 542.209 54.6875 544.319 52.7344C546.428 50.7552 547.483 48.1901 547.483 45.0391C547.483 42.487 546.741 40.2734 545.256 38.3984C543.798 36.4974 541.584 34.8958 538.616 33.5938L531.662 30.625C527.86 29.0365 525.022 26.9922 523.147 24.4922C521.298 21.9922 520.373 18.9974 520.373 15.5078C520.373 11.4453 521.884 8.08594 524.905 5.42969C527.925 2.77344 531.78 1.44531 536.467 1.44531C539.905 1.44531 542.873 2.17448 545.373 3.63281C547.899 5.09115 549.866 7.23958 551.272 10.0781L545.647 13.6719C544.371 11.4583 542.939 9.81771 541.35 8.75C539.761 7.65625 537.965 7.10938 535.959 7.10938C533.407 7.10938 531.311 7.89062 529.67 9.45312C528.056 11.0156 527.248 13.0078 527.248 15.4297C527.248 17.4609 527.873 19.2188 529.123 20.7031C530.373 22.1875 532.314 23.5026 534.944 24.6484L543.108 28.2422ZM628.673 28.2422C632.397 29.8307 635.197 31.9401 637.072 34.5703C638.973 37.2005 639.923 40.3125 639.923 43.9062C639.923 49.1667 638.244 53.4115 634.884 56.6406C631.551 59.8438 627.124 61.4453 621.603 61.4453C617.098 61.4453 613.322 60.2995 610.275 58.0078C607.228 55.6901 605.171 52.4089 604.103 48.1641L610.275 45.1172C611.108 48.5807 612.476 51.2109 614.377 53.0078C616.304 54.7786 618.713 55.6641 621.603 55.6641C625.015 55.6641 627.775 54.6875 629.884 52.7344C631.994 50.7552 633.048 48.1901 633.048 45.0391C633.048 42.487 632.306 40.2734 630.822 38.3984C629.364 36.4974 627.15 34.8958 624.181 33.5938L617.228 30.625C613.426 29.0365 610.588 26.9922 608.713 24.4922C606.864 21.9922 605.939 18.9974 605.939 15.5078C605.939 11.4453 607.45 8.08594 610.47 5.42969C613.491 2.77344 617.345 1.44531 622.033 1.44531C625.47 1.44531 628.439 2.17448 630.939 3.63281C633.465 5.09115 635.431 7.23958 636.838 10.0781L631.213 13.6719C629.936 11.4583 628.504 9.81771 626.916 8.75C625.327 7.65625 623.53 7.10938 621.525 7.10938C618.973 7.10938 616.877 7.89062 615.236 9.45312C613.621 11.0156 612.814 13.0078 612.814 15.4297C612.814 17.4609 613.439 19.2188 614.689 20.7031C615.939 22.1875 617.879 23.5026 620.509 24.6484L628.673 28.2422ZM687.355 55.1172C690.48 55.1172 693.448 54.5312 696.261 53.3594C699.099 52.1615 701.652 50.4297 703.917 48.1641C706.157 45.9245 707.862 43.3854 709.034 40.5469C710.206 37.7083 710.792 34.7005 710.792 31.5234C710.792 28.3203 710.193 25.2734 708.995 22.3828C707.823 19.4922 706.131 16.9401 703.917 14.7266C701.678 12.487 699.139 10.7812 696.3 9.60938C693.487 8.4375 690.506 7.85156 687.355 7.85156C684.178 7.85156 681.17 8.4375 678.331 9.60938C675.493 10.7812 672.98 12.487 670.792 14.7266C668.553 16.9922 666.847 19.5573 665.675 22.4219C664.503 25.2865 663.917 28.3203 663.917 31.5234C663.917 34.7005 664.49 37.6953 665.636 40.5078C666.808 43.3203 668.527 45.8724 670.792 48.1641C673.084 50.4557 675.623 52.1875 678.409 53.3594C681.222 54.5312 684.204 55.1172 687.355 55.1172ZM717.902 31.5234C717.902 35.612 717.146 39.4661 715.636 43.0859C714.126 46.7057 711.925 49.9219 709.034 52.7344C706.144 55.5469 702.81 57.7214 699.034 59.2578C695.284 60.7682 691.391 61.5234 687.355 61.5234C683.318 61.5234 679.425 60.7682 675.675 59.2578C671.951 57.7214 668.644 55.5469 665.753 52.7344C662.836 49.8958 660.61 46.6667 659.073 43.0469C657.563 39.4271 656.808 35.5859 656.808 31.5234C656.808 27.4349 657.563 23.5807 659.073 19.9609C660.61 16.3151 662.836 13.0729 665.753 10.2344C668.618 7.44792 671.925 5.29948 675.675 3.78906C679.425 2.27865 683.318 1.52344 687.355 1.52344C691.417 1.52344 695.323 2.27865 699.073 3.78906C702.849 5.29948 706.17 7.44792 709.034 10.2344C711.925 13.0469 714.126 16.276 715.636 19.9219C717.146 23.5417 717.902 27.4089 717.902 31.5234ZM739.434 60V2.8125H751.348C755.541 2.8125 758.627 3.03385 760.606 3.47656C762.611 3.89323 764.33 4.6224 765.763 5.66406C767.585 7.01823 768.992 8.76302 769.981 10.8984C770.997 13.0078 771.505 15.3255 771.505 17.8516C771.505 20.8724 770.776 23.3984 769.317 25.4297C767.885 27.4609 765.789 28.8802 763.028 29.6875C766.414 30.2083 769.083 31.7318 771.036 34.2578C773.015 36.7578 774.005 39.9219 774.005 43.75C774.005 46.0417 773.588 48.2292 772.755 50.3125C771.921 52.3958 770.763 54.1797 769.278 55.6641C767.664 57.2526 765.671 58.3724 763.302 59.0234C760.932 59.6745 756.947 60 751.348 60H739.434ZM746.075 33.2031V54.0625H751.348C754.968 54.0625 757.572 53.9193 759.161 53.6328C760.776 53.3464 762.065 52.8516 763.028 52.1484C764.2 51.3151 765.124 50.1562 765.802 48.6719C766.479 47.1875 766.817 45.5469 766.817 43.75C766.817 41.6667 766.414 39.8568 765.606 38.3203C764.799 36.7839 763.627 35.5859 762.091 34.7266C761.179 34.1797 760.124 33.7891 758.927 33.5547C757.729 33.3203 755.867 33.2031 753.341 33.2031H751.348H746.075ZM746.075 8.71094V27.8516H751.348C756.192 27.8516 759.604 27.1484 761.583 25.7422C763.562 24.3359 764.552 21.9661 764.552 18.6328C764.552 14.9609 763.627 12.3958 761.778 10.9375C759.955 9.45312 756.479 8.71094 751.348 8.71094H746.075ZM794.834 60V2.8125H808.272C812.1 2.8125 814.899 3.03385 816.67 3.47656C818.467 3.89323 820.043 4.6224 821.397 5.66406C823.09 6.99219 824.405 8.77604 825.342 11.0156C826.28 13.2292 826.748 15.6901 826.748 18.3984C826.748 23.0859 825.433 26.6536 822.803 29.1016C820.199 31.5234 816.371 32.7344 811.319 32.7344H810.108L831.944 60H823.311L802.452 32.7344H801.475V60H794.834ZM801.475 8.55469V27.6953H806.67C811.983 27.6953 815.537 27.0182 817.334 25.6641C819.131 24.2839 820.03 21.888 820.03 18.4766C820.03 14.8047 819.105 12.2396 817.256 10.7812C815.407 9.29688 811.879 8.55469 806.67 8.55469H801.475ZM848.047 60V2.8125H878.203V9.02344H854.844V25.4297H878.203V31.7578H854.844V53.6719H878.203V60H848.047ZM920.986 28.2422C924.71 29.8307 927.509 31.9401 929.384 34.5703C931.285 37.2005 932.236 40.3125 932.236 43.9062C932.236 49.1667 930.556 53.4115 927.197 56.6406C923.864 59.8438 919.436 61.4453 913.916 61.4453C909.41 61.4453 905.634 60.2995 902.588 58.0078C899.541 55.6901 897.483 52.4089 896.416 48.1641L902.588 45.1172C903.421 48.5807 904.788 51.2109 906.689 53.0078C908.616 54.7786 911.025 55.6641 913.916 55.6641C917.327 55.6641 920.088 54.6875 922.197 52.7344C924.306 50.7552 925.361 48.1901 925.361 45.0391C925.361 42.487 924.619 40.2734 923.134 38.3984C921.676 36.4974 919.463 34.8958 916.494 33.5938L909.541 30.625C905.739 29.0365 902.9 26.9922 901.025 24.4922C899.176 21.9922 898.252 18.9974 898.252 15.5078C898.252 11.4453 899.762 8.08594 902.783 5.42969C905.804 2.77344 909.658 1.44531 914.345 1.44531C917.783 1.44531 920.752 2.17448 923.252 3.63281C925.778 5.09115 927.744 7.23958 929.15 10.0781L923.525 13.6719C922.249 11.4583 920.817 9.81771 919.228 8.75C917.64 7.65625 915.843 7.10938 913.838 7.10938C911.285 7.10938 909.189 7.89062 907.548 9.45312C905.934 11.0156 905.127 13.0078 905.127 15.4297C905.127 17.4609 905.752 19.2188 907.002 20.7031C908.252 22.1875 910.192 23.5026 912.822 24.6484L920.986 28.2422ZM969.823 15.5859L960.722 36.6406H978.925L969.823 15.5859ZM969.823 0.546875L995.839 60H988.456L981.034 42.4609H958.691L951.269 60H943.886L969.823 0.546875ZM1012.14 60V2.8125H1018.93V53.5156H1040.54V60H1012.14ZM1059.1 60V2.8125H1065.9V60H1059.1ZM1090.12 60V2.8125H1120.28V9.02344H1096.92V25.4297H1120.28V31.7578H1096.92V53.6719H1120.28V60H1090.12ZM1142.24 60V0.546875L1184.08 46.25V2.8125H1190.56V62.2266L1148.73 17.0312V60H1142.24ZM1224.68 60V9.29688H1208.5V2.8125H1247.64V9.29688H1231.55V60H1224.68ZM1265.62 60V2.8125H1295.78V9.02344H1272.42V25.4297H1295.78V31.7578H1272.42V53.6719H1295.78V60H1265.62ZM1338.56 28.2422C1342.28 29.8307 1345.08 31.9401 1346.96 34.5703C1348.86 37.2005 1349.81 40.3125 1349.81 43.9062C1349.81 49.1667 1348.13 53.4115 1344.77 56.6406C1341.44 59.8438 1337.01 61.4453 1331.49 61.4453C1326.99 61.4453 1323.21 60.2995 1320.16 58.0078C1317.12 55.6901 1315.06 52.4089 1313.99 48.1641L1320.16 45.1172C1321 48.5807 1322.36 51.2109 1324.26 53.0078C1326.19 54.7786 1328.6 55.6641 1331.49 55.6641C1334.9 55.6641 1337.66 54.6875 1339.77 52.7344C1341.88 50.7552 1342.94 48.1901 1342.94 45.0391C1342.94 42.487 1342.19 40.2734 1340.71 38.3984C1339.25 36.4974 1337.04 34.8958 1334.07 33.5938L1327.12 30.625C1323.31 29.0365 1320.47 26.9922 1318.6 24.4922C1316.75 21.9922 1315.83 18.9974 1315.83 15.5078C1315.83 11.4453 1317.34 8.08594 1320.36 5.42969C1323.38 2.77344 1327.23 1.44531 1331.92 1.44531C1335.36 1.44531 1338.33 2.17448 1340.83 3.63281C1343.35 5.09115 1345.32 7.23958 1346.72 10.0781L1341.1 13.6719C1339.82 11.4583 1338.39 9.81771 1336.8 8.75C1335.21 7.65625 1333.42 7.10938 1331.41 7.10938C1328.86 7.10938 1326.76 7.89062 1325.12 9.45312C1323.51 11.0156 1322.7 13.0078 1322.7 15.4297C1322.7 17.4609 1323.33 19.2188 1324.58 20.7031C1325.83 22.1875 1327.77 23.5026 1330.4 24.6484L1338.56 28.2422Z" fill="#E6DBBF"/>
</svg>
