<svg width="580" height="230" viewBox="0 0 580 230" fill="none" xmlns="http://www.w3.org/2000/svg">
<path d="M0 0H580V130L306.5 230L0 130V0Z" fill="#C2FF05" fill-opacity="0.1"/>
<path d="M198.083 39.6H192.083L183.483 90.3C182.783 94.6 182.483 99 181.983 103.3H181.683C181.383 100.8 181.183 98.3 180.783 95.8L172.283 39.6H166.283L155.683 115H162.483L168.483 67.1C169.083 62.3 168.983 57.2 169.183 52.3H169.483C169.783 54.7 169.983 57 170.383 59.4L178.683 115H184.383L192.583 67.2C193.483 62.2 193.683 57.3 194.283 52.3H194.683C194.783 54.7 194.883 57 195.083 59.4L200.383 115H207.283L198.083 39.6ZM235.035 88.5C235.035 104.6 233.835 110.5 227.535 110.5C223.735 110.5 220.235 109.5 220.235 88.3C220.235 79.6 220.635 68.2 227.835 68.2C234.235 68.2 235.035 77.4 235.035 88.5ZM240.935 63.7H234.435V67.2H234.235C232.235 64.4 229.935 62.9 226.335 62.9C213.935 62.9 213.535 77.3 213.535 88.8C213.535 111.2 217.535 115.8 225.735 115.8C229.435 115.8 232.335 113.9 234.235 111H234.435V115H240.935V63.7ZM223.235 53.5L226.435 56.5L239.435 44.8L234.135 40L223.235 53.5ZM270.498 66.2C267.898 64.2 264.798 62.9 261.498 62.9C253.798 62.9 248.698 68.3 248.698 76C248.698 82.1 252.898 86.1 256.998 89.7C261.198 93.4 265.298 96.8 265.298 101.9C265.298 106.2 262.298 109.7 257.798 109.7C253.898 109.7 251.198 107.3 248.698 104.7V112.3C251.198 114.3 254.798 115.8 257.998 115.8C266.498 115.8 271.998 109.3 271.998 101.1C271.998 94.4 267.898 90.6 263.698 87.1C259.598 83.7 255.398 80.7 255.398 75.8C255.398 72 257.898 69 261.798 69C265.398 69 268.398 71.5 270.298 74.2H270.498V66.2ZM321.531 88.5C321.531 102 320.931 110.5 314.031 110.5C305.731 110.5 306.731 93.1 306.731 88.3C306.731 81 307.031 68.2 314.331 68.2C320.331 68.2 321.531 76.8 321.531 88.5ZM320.931 115H327.431V35H320.931V67.2H320.731C318.731 64.4 316.431 62.9 312.831 62.9C301.431 62.9 300.031 74.8 300.031 88.8C300.031 102.8 301.531 115.8 312.231 115.8C315.931 115.8 318.831 113.9 320.731 111H320.931V115ZM357.395 88.5C357.395 104.6 356.195 110.5 349.895 110.5C346.095 110.5 342.595 109.5 342.595 88.3C342.595 79.6 342.995 68.2 350.195 68.2C356.595 68.2 357.395 77.4 357.395 88.5ZM363.295 63.7H356.795V67.2H356.595C354.595 64.4 352.295 62.9 348.695 62.9C336.295 62.9 335.895 77.3 335.895 88.8C335.895 111.2 339.895 115.8 348.095 115.8C351.795 115.8 354.695 113.9 356.595 111H356.795V115H363.295V63.7ZM390.958 63.7H382.458V49.7H375.958V63.7H370.458V69.7H375.958V115H382.458V69.7H390.958V63.7ZM415.254 88.5C415.254 104.6 414.054 110.5 407.754 110.5C403.954 110.5 400.454 109.5 400.454 88.3C400.454 79.6 400.854 68.2 408.054 68.2C414.454 68.2 415.254 77.4 415.254 88.5ZM421.154 63.7H414.654V67.2H414.454C412.454 64.4 410.154 62.9 406.554 62.9C394.154 62.9 393.754 77.3 393.754 88.8C393.754 111.2 397.754 115.8 405.954 115.8C409.654 115.8 412.554 113.9 414.454 111H414.654V115H421.154V63.7Z" fill="#E6DBBF"/>
</svg>
