<svg width="944" height="100" viewBox="0 0 944 100" fill="none" xmlns="http://www.w3.org/2000/svg">
<g filter="url(#filter0_d_841_17)">
<path d="M25.2031 83.2266L1.02344 23.8125H8.40625L25.2031 67.5625L41.9219 23.8125H49.2656L25.2031 83.2266ZM75.3594 81V23.8125H82.1562V81H75.3594ZM136.805 49.2422C140.529 50.8307 143.328 52.9401 145.203 55.5703C147.104 58.2005 148.055 61.3125 148.055 64.9062C148.055 70.1667 146.375 74.4115 143.016 77.6406C139.682 80.8438 135.255 82.4453 129.734 82.4453C125.229 82.4453 121.453 81.2995 118.406 79.0078C115.359 76.6901 113.302 73.4089 112.234 69.1641L118.406 66.1172C119.24 69.5807 120.607 72.2109 122.508 74.0078C124.435 75.7786 126.844 76.6641 129.734 76.6641C133.146 76.6641 135.906 75.6875 138.016 73.7344C140.125 71.7552 141.18 69.1901 141.18 66.0391C141.18 63.487 140.438 61.2734 138.953 59.3984C137.495 57.4974 135.281 55.8958 132.312 54.5938L125.359 51.625C121.557 50.0365 118.719 47.9922 116.844 45.4922C114.995 42.9922 114.07 39.9974 114.07 36.5078C114.07 32.4453 115.581 29.0859 118.602 26.4297C121.622 23.7734 125.477 22.4453 130.164 22.4453C133.602 22.4453 136.57 23.1745 139.07 24.6328C141.596 26.0911 143.562 28.2396 144.969 31.0781L139.344 34.6719C138.068 32.4583 136.635 30.8177 135.047 29.75C133.458 28.6562 131.661 28.1094 129.656 28.1094C127.104 28.1094 125.008 28.8906 123.367 30.4531C121.753 32.0156 120.945 34.0078 120.945 36.4297C120.945 38.4609 121.57 40.2188 122.82 41.7031C124.07 43.1875 126.01 44.5026 128.641 45.6484L136.805 49.2422ZM177.234 81V23.8125H184.031V81H177.234ZM245.789 76.1172C248.914 76.1172 251.883 75.5312 254.695 74.3594C257.534 73.1615 260.086 71.4297 262.352 69.1641C264.591 66.9245 266.297 64.3854 267.469 61.5469C268.641 58.7083 269.227 55.7005 269.227 52.5234C269.227 49.3203 268.628 46.2734 267.43 43.3828C266.258 40.4922 264.565 37.9401 262.352 35.7266C260.112 33.487 257.573 31.7812 254.734 30.6094C251.922 29.4375 248.94 28.8516 245.789 28.8516C242.612 28.8516 239.604 29.4375 236.766 30.6094C233.927 31.7812 231.414 33.487 229.227 35.7266C226.987 37.9922 225.281 40.5573 224.109 43.4219C222.938 46.2865 222.352 49.3203 222.352 52.5234C222.352 55.7005 222.924 58.6953 224.07 61.5078C225.242 64.3203 226.961 66.8724 229.227 69.1641C231.518 71.4557 234.057 73.1875 236.844 74.3594C239.656 75.5312 242.638 76.1172 245.789 76.1172ZM276.336 52.5234C276.336 56.612 275.581 60.4661 274.07 64.0859C272.56 67.7057 270.359 70.9219 267.469 73.7344C264.578 76.5469 261.245 78.7214 257.469 80.2578C253.719 81.7682 249.826 82.5234 245.789 82.5234C241.753 82.5234 237.859 81.7682 234.109 80.2578C230.385 78.7214 227.078 76.5469 224.188 73.7344C221.271 70.8958 219.044 67.6667 217.508 64.0469C215.997 60.4271 215.242 56.5859 215.242 52.5234C215.242 48.4349 215.997 44.5807 217.508 40.9609C219.044 37.3151 221.271 34.0729 224.188 31.2344C227.052 28.4479 230.359 26.2995 234.109 24.7891C237.859 23.2786 241.753 22.5234 245.789 22.5234C249.852 22.5234 253.758 23.2786 257.508 24.7891C261.284 26.2995 264.604 28.4479 267.469 31.2344C270.359 34.0469 272.56 37.276 274.07 40.9219C275.581 44.5417 276.336 48.4089 276.336 52.5234ZM240.203 18.1094L248.172 4.51562H256.023L244.891 18.1094H240.203ZM307.469 81V21.5469L349.305 67.25V23.8125H355.789V83.2266L313.953 38.0312V81H307.469ZM433.172 81V23.8125H439.969V81H433.172ZM473.797 81V21.5469L515.633 67.25V23.8125H522.117V83.2266L480.281 38.0312V81H473.797ZM565.828 81V30.2969H549.656V23.8125H588.797V30.2969H572.703V81H565.828ZM616.375 81V23.8125H646.531V30.0234H623.172V46.4297H646.531V52.7578H623.172V74.6719H646.531V81H616.375ZM709.539 51.4688H733.133V53.3828C733.133 62.3932 730.581 69.5026 725.477 74.7109C720.372 79.9193 713.406 82.5234 704.578 82.5234C701.896 82.5234 699.331 82.237 696.883 81.6641C694.461 81.0911 692.221 80.2578 690.164 79.1641C685.477 76.5859 681.857 73.0312 679.305 68.5C676.753 63.9427 675.477 58.7734 675.477 52.9922C675.477 48.2266 676.232 43.9297 677.742 40.1016C679.279 36.2474 681.583 32.862 684.656 29.9453C687.234 27.4974 690.229 25.6484 693.641 24.3984C697.052 23.1484 700.828 22.5234 704.969 22.5234C710.464 22.5234 715.229 23.526 719.266 25.5312C723.302 27.5104 726.648 30.5052 729.305 34.5156L723.602 39.0859C721.544 35.6224 718.979 33.0312 715.906 31.3125C712.833 29.5677 709.266 28.6953 705.203 28.6953C698.562 28.6953 693.172 30.9349 689.031 35.4141C684.891 39.8932 682.82 45.7526 682.82 52.9922C682.82 59.8151 684.917 65.4141 689.109 69.7891C693.328 74.1641 698.693 76.3516 705.203 76.3516C710.932 76.3516 715.698 74.6198 719.5 71.1562C723.328 67.6667 725.451 63.1354 725.867 57.5625H709.539V51.4688ZM763.25 81V23.8125H776.688C780.516 23.8125 783.315 24.0339 785.086 24.4766C786.883 24.8932 788.458 25.6224 789.812 26.6641C791.505 27.9922 792.82 29.776 793.758 32.0156C794.695 34.2292 795.164 36.6901 795.164 39.3984C795.164 44.0859 793.849 47.6536 791.219 50.1016C788.615 52.5234 784.786 53.7344 779.734 53.7344H778.523L800.359 81H791.727L770.867 53.7344H769.891V81H763.25ZM769.891 29.5547V48.6953H775.086C780.398 48.6953 783.953 48.0182 785.75 46.6641C787.547 45.2839 788.445 42.888 788.445 39.4766C788.445 35.8047 787.521 33.2396 785.672 31.7812C783.823 30.2969 780.294 29.5547 775.086 29.5547H769.891ZM844.148 36.5859L835.047 57.6406H853.25L844.148 36.5859ZM844.148 21.5469L870.164 81H862.781L855.359 63.4609H833.016L825.594 81H818.211L844.148 21.5469ZM896.062 81V23.8125H902.859V74.5156H924.461V81H896.062Z" fill="#E6DBBF"/>
</g>
<defs>
<filter id="filter0_d_841_17" x="0.0234375" y="0.515625" width="943.438" height="98.7109" filterUnits="userSpaceOnUse" color-interpolation-filters="sRGB">
<feFlood flood-opacity="0" result="BackgroundImageFix"/>
<feColorMatrix in="SourceAlpha" type="matrix" values="0 0 0 0 0 0 0 0 0 0 0 0 0 0 0 0 0 0 127 0" result="hardAlpha"/>
<feOffset dx="9" dy="6"/>
<feGaussianBlur stdDeviation="5"/>
<feComposite in2="hardAlpha" operator="out"/>
<feColorMatrix type="matrix" values="0 0 0 0 0 0 0 0 0 0 0 0 0 0 0 0 0 0 0.5 0"/>
<feBlend mode="normal" in2="BackgroundImageFix" result="effect1_dropShadow_841_17"/>
<feBlend mode="normal" in="SourceGraphic" in2="effect1_dropShadow_841_17" result="shape"/>
</filter>
</defs>
</svg>
